<svg width="800" height="386" viewBox="0 0 800 386" fill="none" xmlns="http://www.w3.org/2000/svg">
<g clip-path="url(#clip0_211_8)">
<path d="M116.445 0C75.2583 54.8204 0 133.155 0 225.73C0 289.856 52.1327 341.839 116.445 341.839C180.758 341.839 232.891 289.856 232.891 225.73C232.891 133.155 157.611 54.8204 116.445 0Z" fill="#42A3EA"/>
<path d="M170.378 385.399C192.489 355.856 232.891 313.639 232.891 263.751C232.891 229.192 204.904 201.178 170.378 201.178C135.852 201.178 107.865 229.192 107.865 263.751C107.865 313.639 148.278 355.856 170.378 385.399Z" fill="#FF8DBD"/>
<path d="M168.744 303.403C190.181 303.403 207.559 286.011 207.559 264.557C207.559 243.104 190.181 225.712 168.744 225.712C147.307 225.712 129.929 243.104 129.929 264.557C129.929 286.011 147.307 303.403 168.744 303.403Z" fill="#FFFCFC"/>
<path d="M426.402 169.683L449.195 165.826C451.709 165.323 453.385 162.975 453.05 160.46L451.541 148.051C451.206 145.535 449.027 143.858 446.513 144.194L436.96 145.87C436.29 146.038 435.787 145.367 436.122 144.697L453.627 104.329C454.633 101.981 453.627 99.466 451.281 98.4593L439.213 93.7643C436.867 92.7576 434.185 93.932 433.012 96.2791L409.473 149.559C409.138 150.398 408.468 150.734 407.797 150.901L350.869 159.426C350.199 159.594 349.528 158.922 349.696 158.252L351.54 130.247C351.707 128.067 349.696 126.222 347.517 126.893L327.237 132.091C324.556 132.763 322.545 135.11 322.209 137.793L320.869 149.532C320.701 151.712 322.712 153.389 324.723 152.885L326.232 152.382C326.902 152.215 327.572 152.718 327.405 153.389L326.902 162.277C326.902 162.947 326.232 163.618 325.394 163.786L303.438 167.642C300.924 167.978 299.081 170.326 299.081 172.841L299.583 185.921C299.751 188.269 301.93 190.114 304.276 189.611L323.885 186.257C324.556 186.09 325.226 186.76 325.226 187.431L322.396 219.6C322.228 222.115 324.072 224.128 326.585 224.295H339.826C342.508 224.463 344.519 222.451 344.686 219.936L347.852 183.406C348.02 182.567 348.523 181.897 349.36 181.897L396.569 174.882C397.239 174.882 397.741 175.552 397.574 176.055L344.966 294.522C343.961 296.702 345.301 299.218 347.48 299.888L361.893 303.913C364.408 304.584 367.09 303.242 368.095 300.894L424.557 171.025C424.893 170.353 425.563 169.851 426.402 169.683Z" fill="#42A3EA"/>
<path d="M573.936 261.756L585.5 204.907C585.835 202.727 583.992 200.883 581.98 201.218L470.628 220.475C469.958 220.643 469.455 220.14 469.455 219.469V217.121C469.623 214.773 467.612 212.928 465.265 213.264L451.522 215.779C449.007 216.283 446.996 218.462 446.829 221.146L442.974 303.148C442.807 305.496 444.985 307.34 447.164 306.838L575.443 285.233C577.958 284.73 579.801 282.382 579.634 279.699L578.628 265.78C578.46 263.768 576.617 262.426 574.773 262.762C574.271 262.762 573.936 262.259 573.936 261.756ZM466.438 279.504L468.282 244.288C468.282 243.617 468.784 242.946 469.623 242.778L556.505 228.552C557.007 228.385 557.678 229.055 557.511 229.558L550.471 266.451C550.303 267.29 549.633 267.793 548.795 267.96L467.779 280.677C467.108 280.677 466.438 280.174 466.438 279.504Z" fill="#42A3EA"/>
<path d="M797.493 63.7564L791.125 60.9056C788.778 59.8994 786.097 60.9056 784.924 63.2534C782.074 68.6196 777.214 78.6812 773.694 88.2396C772.857 90.5875 774.029 93.2707 776.544 93.9412L782.913 95.7862C785.426 96.6244 787.941 95.2832 788.946 92.9354C792.13 84.2152 796.823 74.8242 799.505 69.6257C800.678 67.4456 799.673 64.7626 797.493 63.7564ZM773.527 63.7564L766.99 61.4086C764.476 60.5702 761.795 61.744 760.789 64.0918C759.113 68.1165 756.599 74.8242 753.917 82.5379C753.08 84.8858 754.42 87.4013 756.767 88.0719L763.303 90.0845C765.649 90.7551 768.331 89.5816 769.169 87.066C771.683 79.855 774.364 73.3149 776.04 69.458C777.046 67.1102 775.873 64.5949 773.527 63.7564ZM741.003 102.438L758.238 104.282C760.585 104.45 761.757 106.965 760.92 108.978L640.871 338.886C639.865 341.234 637.183 342.407 634.67 341.569L620.759 336.873C618.58 336.035 617.407 333.52 618.58 331.339L724.215 134.467C724.55 133.964 724.047 133.294 723.377 133.294L635.606 147.666C634.936 147.834 634.265 148.169 633.93 148.84L617.84 176.006C616.5 178.187 613.651 179.192 611.305 178.019L598.734 172.317C596.388 171.311 595.55 168.628 596.891 166.448L642.814 90.3143C644.154 88.1349 647.003 87.4635 649.182 88.6378L660.579 95.1778C662.59 96.3513 663.428 99.2021 662.087 101.382L649.685 122.176C649.349 122.847 649.853 123.518 650.523 123.518L735.78 109.481C735.947 109.481 735.947 109.481 735.947 109.649L737.958 105.792C739.132 103.444 738.321 102.103 741.003 102.438Z" fill="#42A3EA"/>
</g>
<defs>
<clipPath id="clip0_211_8">
<rect width="800" height="386" fill="white"/>
</clipPath>
</defs>
</svg>
