<svg width="771" height="92" viewBox="0 0 771 92" fill="none" xmlns="http://www.w3.org/2000/svg">
<path d="M308.372 63.4283C308.861 63.4283 308.812 63.5259 309.154 63.8677C309.495 64.2095 309.373 64.1607 309.373 64.649C309.373 69.8248 309.178 69.8249 309.178 75.0007C309.178 80.1765 309.471 80.1765 309.471 85.3524C309.471 86.0848 309.959 86.8661 310.692 86.8661C313.377 86.8661 313.377 86.9881 316.038 86.9881C316.771 86.9881 317.259 86.1092 317.259 85.3768C317.259 80.2009 317.137 80.2009 317.137 75.0251C317.137 69.8493 317.503 69.8493 317.503 64.6734C317.503 64.1851 316.893 63.8922 317.235 63.5504C317.577 63.2086 317.87 63.941 318.358 63.941C324.461 63.941 324.461 63.8433 330.541 63.8433C336.62 63.8433 336.644 63.7701 342.723 63.7701C343.456 63.7701 343.822 63.0865 343.822 62.3541C343.822 56.3237 343.993 56.3237 343.993 50.2934C343.993 44.263 344.335 44.263 344.335 38.2327C344.335 32.2024 343.968 32.2024 343.968 26.172C343.968 25.4396 343.456 24.8781 342.723 24.8781C336.717 24.8781 336.717 24.7316 330.736 24.7316C324.73 24.7316 324.73 24.7804 318.748 24.7804C312.743 24.7804 312.743 24.9513 306.761 24.9513C300.755 24.9513 300.755 24.756 294.774 24.756C288.792 24.756 288.768 24.8048 282.786 24.8048C282.054 24.8048 281.272 25.4396 281.272 26.172C281.272 32.2024 281.565 32.2024 281.565 38.2327C281.565 44.263 281.541 44.263 281.541 50.2934C281.541 56.3237 281.395 56.3237 281.395 62.3541C281.395 63.0865 282.054 63.8677 282.786 63.8677C289.207 63.8677 289.207 63.7701 295.604 63.6724C301.951 63.5992 301.951 63.4283 308.372 63.4283Z" fill="white"/>
<path d="M316.014 87.9647C314.647 87.9647 313.963 87.9403 313.304 87.9159C312.62 87.8915 311.986 87.8671 310.667 87.8671C309.3 87.8671 308.47 86.5731 308.47 85.3768C308.47 82.8133 308.397 81.5193 308.324 80.2498C308.25 78.9558 308.177 77.6374 308.177 75.0251C308.177 72.4128 308.226 71.0944 308.275 69.8004C308.324 68.5309 308.372 67.2369 308.372 64.6734C308.372 64.6246 308.372 64.5514 308.372 64.5025C308.348 64.4781 308.324 64.4537 308.299 64.4293C304.759 64.4293 303.221 64.4781 301.414 64.5514C299.998 64.6002 298.387 64.649 295.555 64.6978C292.943 64.7223 291.38 64.7711 290.037 64.7955C288.084 64.8443 286.522 64.8687 282.737 64.8687C281.492 64.8687 280.369 63.6724 280.369 62.3541C280.369 59.3267 280.418 57.7886 280.442 56.2993C280.467 54.8344 280.516 53.2963 280.516 50.2934C280.516 47.2904 280.516 45.7767 280.516 44.263C280.516 42.7494 280.516 41.2601 280.516 38.2327C280.516 35.2542 280.442 33.7161 280.369 32.2512C280.296 30.7619 280.223 29.2238 280.223 26.172C280.223 24.8292 281.541 23.8282 282.737 23.8282C285.74 23.8282 287.254 23.8038 288.719 23.8038C290.208 23.7794 291.722 23.7794 294.725 23.7794C297.752 23.7794 299.266 23.8282 300.755 23.8771C302.22 23.9259 303.734 23.9747 306.712 23.9747C309.691 23.9747 311.204 23.9259 312.694 23.8771C314.183 23.8282 315.697 23.7794 318.724 23.7794C321.727 23.7794 323.241 23.7794 324.706 23.755C326.17 23.755 327.709 23.7306 330.712 23.7306C333.714 23.7306 335.253 23.755 336.742 23.8038C338.207 23.8282 339.72 23.8771 342.723 23.8771C343.968 23.8771 344.969 24.8781 344.969 26.172C344.969 29.1506 345.067 30.6643 345.14 32.1291C345.238 33.6184 345.311 35.1809 345.311 38.2083C345.311 41.2601 345.214 42.7982 345.14 44.2875C345.067 45.7523 344.969 47.266 344.969 50.2446C344.969 53.2719 344.921 54.81 344.896 56.2993C344.847 57.7642 344.823 59.3023 344.823 62.3052C344.823 63.6969 343.944 64.6978 342.748 64.6978C339.696 64.6978 338.158 64.7223 336.669 64.7223C335.179 64.7467 333.617 64.7467 330.565 64.7467C327.513 64.7467 325.975 64.7711 324.486 64.7955C322.997 64.8199 321.483 64.8443 318.504 64.8443C318.504 67.2858 318.407 68.5797 318.333 69.8249C318.236 71.1432 318.163 72.3884 318.163 74.9275C318.163 77.5154 318.187 78.8093 318.211 80.0789C318.236 81.3484 318.26 82.6668 318.26 85.2791C318.236 86.6219 317.332 87.9647 316.014 87.9647ZM310.692 85.8895C312.035 85.8895 312.718 85.9139 313.402 85.9383C314.085 85.9627 314.72 85.9871 316.014 85.9871C316.112 85.9139 316.258 85.6453 316.258 85.3524C316.258 82.7644 316.234 81.4705 316.209 80.2009C316.185 78.9314 316.161 77.613 316.161 75.0007C316.161 72.3884 316.258 71.0456 316.331 69.7516C316.429 68.4577 316.502 67.9449 316.502 65.4547C316.478 65.4303 316.454 64.6734 316.454 64.649C316.234 64.0142 316.331 63.1597 316.771 62.94C317.137 62.7691 317.845 62.7691 318.602 62.8668C318.626 62.8668 319.554 62.8912 319.554 62.9156C322.508 62.9156 322.948 62.8912 324.413 62.8668C325.926 62.8424 327.464 62.8179 330.516 62.8179C333.568 62.8179 335.106 62.7935 336.595 62.7935C338.085 62.7691 339.647 62.7691 342.699 62.7691C342.723 62.7203 342.797 62.5738 342.797 62.3541C342.797 59.3267 342.845 57.7886 342.87 56.2993C342.919 54.8344 342.943 53.2963 342.943 50.2934C342.943 47.2416 343.041 45.7035 343.114 44.2142C343.187 42.7494 343.285 41.2357 343.285 38.2571C343.285 35.2786 343.187 33.7649 343.114 32.3C343.016 30.8107 342.943 29.2482 342.943 26.2208C342.943 26.0988 342.919 25.9279 342.699 25.9279C339.696 25.9279 338.158 25.9035 336.669 25.8546C335.204 25.8302 333.69 25.7814 330.687 25.7814C327.684 25.7814 326.17 25.7814 324.706 25.8058C323.241 25.8058 321.703 25.8302 318.7 25.8302C315.721 25.8302 314.207 25.8791 312.718 25.9279C311.229 25.9767 309.715 26.0255 306.688 26.0255C303.66 26.0255 302.147 25.9767 300.657 25.9279C299.193 25.8791 297.679 25.8302 294.7 25.8302C291.697 25.8302 290.184 25.8546 288.719 25.8546C287.23 25.879 285.716 25.879 282.713 25.879C282.469 25.879 282.176 26.1476 282.176 26.2453C282.176 29.2238 282.249 30.7619 282.322 32.2268C282.396 33.7161 282.469 35.2542 282.469 38.3059C282.469 41.3089 282.469 42.8226 282.469 44.3363C282.469 45.85 282.469 47.3392 282.469 50.3666C282.469 53.394 282.42 54.9321 282.396 56.4214C282.371 57.8862 282.322 59.4244 282.322 62.4273C282.322 62.6715 282.591 62.94 282.713 62.94C286.473 62.94 288.011 62.8912 289.964 62.8668C291.331 62.8424 292.869 62.7935 295.506 62.7691C298.314 62.7447 299.901 62.6714 301.317 62.647C303.148 62.5982 304.735 62.525 308.324 62.525C309.032 62.525 309.325 62.7203 309.666 63.1109C309.715 63.1597 309.74 63.2086 309.813 63.2574C310.203 63.648 310.399 63.9654 310.326 64.5514C310.326 64.6002 310.301 64.6734 310.301 64.7467C310.301 67.359 310.252 68.6774 310.203 69.9713C310.155 71.2409 310.106 72.5348 310.106 75.0983C310.106 77.6619 310.179 78.9558 310.252 80.2254C310.326 81.5193 310.399 82.8377 310.399 85.45C310.448 85.6453 310.619 85.8651 310.692 85.8895C310.692 85.8895 310.667 85.8895 310.692 85.8895Z" fill="black"/>
<path d="M523.171 72.9988C528.053 70.1667 528.175 70.3865 533.083 67.5788C537.966 64.7468 538.014 64.82 542.897 61.9879C547.78 59.1559 547.609 58.8629 552.517 56.0553C557.399 53.2232 557.448 53.3209 562.356 50.4888C567.263 47.6567 567.434 47.9741 572.317 45.1421C572.951 44.7758 573.733 44.727 574.099 45.3618C575.735 48.1694 575.442 48.3403 577.077 51.148C577.444 51.7828 577.468 52.6128 576.858 52.9791C571.975 55.8111 571.95 55.7867 567.068 58.6188C562.185 61.4508 562.136 61.3776 557.253 64.2096C552.37 67.0417 552.346 67.0173 547.463 69.8249C542.58 72.657 542.507 72.5349 537.624 75.3426C532.741 78.1502 532.741 78.1746 527.858 81.0067C527.223 81.3729 526.686 81.1044 526.32 80.4696C524.684 77.6619 524.489 77.784 522.853 74.952C522.463 74.3416 522.536 73.365 523.171 72.9988Z" fill="#C4C4C4"/>
<path d="M527.272 82.1787C527.052 82.1787 526.808 82.1298 526.588 82.0566C526.124 81.8613 525.734 81.5195 525.416 80.9824C524.611 79.6152 524.196 78.956 523.732 78.2968C523.268 77.6132 522.609 77.0028 521.974 75.4891C521.388 74.1219 521.339 72.9989 522.511 72.3397L523.195 71.9735C525.66 70.5574 526.246 69.9959 527.687 69.4344C528.981 68.9217 530.177 68.1404 532.594 66.7488C535.036 65.3328 536.305 64.6248 537.526 63.9412C538.722 63.2576 539.992 62.574 542.433 61.1579C544.85 59.7663 546.046 58.985 547.194 58.2282C548.366 57.4469 549.587 56.6413 552.052 55.2252C554.494 53.8092 555.812 53.1988 556.984 52.442C559.01 51.1236 559.181 50.9283 561.891 49.6832C564.479 48.4625 565.676 47.608 566.921 46.9732C568.141 46.3628 569.435 45.7281 571.852 44.3364C573.073 43.6284 574.391 43.8726 575.002 44.9224C575.832 46.3628 576.198 47.1441 576.54 47.9009C576.882 48.6334 577.199 49.3414 577.98 50.7086C578.273 51.1969 578.395 51.7584 578.371 52.2955C578.322 52.9791 577.956 53.5651 577.394 53.9069C574.953 55.3229 573.683 55.9821 572.487 56.7145C571.559 57.3005 570.241 57.6667 567.433 59.3513C564.772 60.9382 563.918 61.6462 562.697 62.3298C561.501 63.0134 560.231 63.7214 557.79 65.113C555.348 66.5291 554.128 67.2127 552.907 67.9207C551.686 68.6287 550.661 69.0193 548 70.7283C545.558 72.3153 544.289 72.828 543.043 73.5116C541.823 74.1708 540.407 74.6835 537.965 76.0751C535.524 77.4911 534.474 78.37 533.253 79.078C532.033 79.7861 530.812 80.4941 528.37 81.8857C527.98 82.081 527.614 82.1787 527.272 82.1787ZM523.683 73.8534C523.61 73.9022 523.561 74.244 523.683 74.4881C524.489 75.8553 524.904 76.5145 525.368 77.1737C525.831 77.8573 526.295 78.5409 527.125 79.9814C527.174 80.079 527.247 80.1523 527.272 80.1767C527.272 80.1767 527.296 80.1767 527.296 80.1523C529.738 78.7362 530.958 78.2235 532.179 77.5155C533.4 76.8075 534.621 75.9286 537.086 74.5126C539.552 73.0965 540.871 72.4862 542.042 71.7293C543.678 70.6551 544.484 70.3377 546.95 68.9705C549.44 67.6033 550.636 66.8709 551.857 66.1629C553.053 65.4548 554.225 64.6248 556.74 63.3552C559.328 62.0368 560.5 61.3288 561.647 60.5476C562.917 59.6931 564.186 58.985 566.554 57.7643C569.069 56.4704 570.217 55.6647 571.437 54.9567C572.658 54.2487 573.879 53.5651 576.32 52.149C576.345 52.0758 576.32 51.9049 576.198 51.6607C575.368 50.2203 575.002 49.439 574.66 48.6822C574.318 47.9498 574.001 47.2418 573.22 45.8746C573.146 45.8746 573 45.8746 572.78 45.9966C570.314 47.4127 569.045 48.1695 567.751 48.7066C566.335 49.2681 565.065 50.1715 562.819 51.3434C560.426 52.5885 559.035 53.3209 557.887 54.1266C556.618 55.0299 554.64 55.9332 552.98 56.9098C550.661 58.277 549.294 58.985 548.219 59.8395C547.072 60.7917 545.827 61.4265 543.361 62.8425C540.919 64.2585 539.65 64.9666 538.429 65.6502C537.233 66.3338 535.963 67.0174 533.522 68.4334C531.056 69.8494 529.762 70.411 528.517 71.0457C527.369 71.6805 526.1 72.4618 523.683 73.8534Z" fill="black"/>
<path d="M559.621 18.0665C561.013 18.0665 561.013 18.0665 562.429 18.0665C563.161 18.0665 563.796 18.6281 563.796 19.3605C563.796 23.8527 563.723 23.8527 563.723 28.345C563.723 29.0774 563.186 29.7122 562.453 29.7122C561.062 29.7122 561.062 29.6878 559.646 29.6878C558.913 29.6878 558.278 29.0774 558.278 28.345C558.278 23.8527 558.376 23.8527 558.376 19.3605C558.352 18.6281 558.889 18.0665 559.621 18.0665Z" fill="black"/>
<path d="M562.429 30.6888C561.721 30.6888 561.355 30.6888 561.013 30.6888C560.671 30.6888 560.329 30.6888 559.621 30.6888C558.352 30.6888 557.277 29.6145 557.277 28.345C557.277 26.0989 557.302 24.9514 557.326 23.8283C557.351 22.7297 557.375 21.5822 557.375 19.3605C557.375 18.0665 558.376 17.0656 559.646 17.0656C560.354 17.0656 560.695 17.0656 561.062 17.0656C561.403 17.0656 561.77 17.0656 562.453 17.0656C563.747 17.0656 564.797 18.091 564.797 19.3605C564.797 21.6066 564.773 22.7541 564.748 23.8772C564.724 24.9758 564.699 26.1233 564.699 28.345C564.699 29.6389 563.674 30.6888 562.429 30.6888ZM559.621 19.0431C559.426 19.0431 559.353 19.214 559.353 19.3605C559.353 21.6066 559.328 22.7541 559.304 23.8772C559.279 24.9758 559.255 26.1233 559.255 28.345C559.255 28.5159 559.45 28.7112 559.621 28.7112C560.329 28.7112 560.695 28.7112 561.037 28.7112C561.379 28.7112 561.721 28.7112 562.429 28.7112C562.6 28.7112 562.722 28.5159 562.722 28.345C562.722 26.0989 562.746 24.9514 562.771 23.8283C562.795 22.7297 562.819 21.5822 562.819 19.3605C562.819 19.1896 562.649 19.0675 562.453 19.0675C561.745 19.0675 561.403 19.0675 561.037 19.0675C560.671 19.0431 560.329 19.0431 559.621 19.0431Z" fill="black"/>
<path d="M569.533 18.0421C570.925 18.0421 570.925 18.0421 572.341 18.0421C573.073 18.0421 573.635 18.6281 573.635 19.3605C573.635 23.8527 573.708 23.8527 573.708 28.345C573.708 29.0774 573.073 29.6878 572.341 29.6878C570.949 29.6878 570.949 29.6878 569.533 29.6878C568.8 29.6878 568.19 29.0774 568.19 28.3694C568.19 23.8771 568.19 23.8771 568.19 19.3849C568.166 18.6281 568.8 18.0421 569.533 18.0421Z" fill="black"/>
<path d="M572.341 30.6643C571.633 30.6643 571.291 30.6643 570.925 30.6643C570.583 30.6643 570.217 30.6643 569.533 30.6643C568.239 30.6643 567.189 29.6145 567.189 28.345C567.189 26.0989 567.189 24.9758 567.189 23.8527C567.189 22.7297 567.189 21.6066 567.189 19.3605C567.189 18.091 568.239 17.0656 569.533 17.0656H572.341C573.61 17.0656 574.636 18.0665 574.636 19.3605C574.636 21.6066 574.66 22.7297 574.66 23.8283C574.685 24.927 574.685 26.0744 574.685 28.345C574.685 29.6145 573.61 30.6643 572.341 30.6643ZM569.533 19.0431C569.338 19.0431 569.167 19.1896 569.167 19.3605C569.167 21.6066 569.167 22.7297 569.167 23.8527C569.167 24.9758 569.167 26.0989 569.167 28.345C569.167 28.5159 569.338 28.6868 569.533 28.6868C570.241 28.6868 570.583 28.6868 570.949 28.6868C571.291 28.6868 571.657 28.6868 572.341 28.6868C572.536 28.6868 572.707 28.5159 572.707 28.345C572.707 26.0989 572.683 24.9758 572.683 23.8772C572.658 22.7785 572.658 21.631 572.658 19.3605C572.658 19.1652 572.536 19.0431 572.365 19.0431H569.533Z" fill="black"/>
<path d="M395.214 60.1326C398.461 60.1326 398.461 59.9373 401.708 59.9373C402.441 59.9373 402.929 60.6697 402.929 61.3777C402.929 67.3348 402.978 67.3348 402.978 73.2919C402.978 79.249 403.051 79.249 403.051 85.2061C403.051 85.9385 402.441 86.5001 401.708 86.5001C398.461 86.5001 398.461 86.5489 395.214 86.5489C394.481 86.5489 393.798 85.9385 393.798 85.2061C393.798 79.249 393.798 79.249 393.798 73.2919C393.798 67.3348 393.847 67.3348 393.847 61.3777C393.871 60.6697 394.506 60.1326 395.214 60.1326Z" fill="black"/>
<path d="M395.214 87.5255C393.92 87.5255 392.821 86.4512 392.821 85.2061C392.821 82.2276 392.821 80.7383 392.821 79.249C392.821 77.7597 393.017 76.2705 393.017 73.2919C393.017 70.3134 392.846 68.7997 392.87 67.3348C392.895 65.8699 392.895 64.3563 392.895 61.4021C392.895 60.1326 393.92 59.156 395.238 59.156C396.825 59.156 397.606 59.1072 398.437 59.0584C399.242 59.0095 400.097 58.9607 401.757 58.9607C402.978 58.9607 403.954 60.0593 403.954 61.4021C403.954 64.3807 403.979 65.8944 403.979 67.3348C404.003 68.7997 403.832 70.3134 403.832 73.2919C403.832 76.2705 404.027 77.7597 404.052 79.2246C404.076 80.6895 404.076 82.2031 404.076 85.1817C404.076 86.4512 403.026 87.4522 401.757 87.4522C400.146 87.4522 399.316 87.4766 398.51 87.4766C397.68 87.5255 396.85 87.5255 395.214 87.5255ZM401.733 60.9382C400.146 60.9382 399.364 60.9871 398.534 61.0359C397.729 61.0847 396.874 61.1336 395.214 61.1336C395.043 61.1336 394.848 61.2312 394.848 61.4021C394.848 64.3807 394.823 65.8944 394.823 67.3592C394.799 68.8241 394.799 70.3378 394.799 73.2919C394.799 76.2705 394.799 77.7597 394.799 79.249C394.799 80.7383 394.799 82.2276 394.799 85.2061C394.799 85.377 395.019 85.5479 395.214 85.5479C396.825 85.5479 397.655 85.5235 398.461 85.5235C399.267 85.4991 400.097 85.4991 401.733 85.4991C401.903 85.4991 402.074 85.377 402.074 85.2061C402.074 82.2276 402.05 80.7383 402.05 79.2734C402.025 77.8086 402.025 76.2949 402.025 73.3163C402.025 70.3378 402.001 68.8241 402.001 67.3836C401.977 65.9188 401.977 64.4051 401.977 61.4265C401.952 61.158 401.806 60.9382 401.733 60.9382Z" fill="black"/>
<path d="M369.629 25.1223C375.415 25.1223 375.415 25.0735 381.177 25.0735C386.963 25.0735 386.963 24.9514 392.725 24.9514C398.511 24.9514 398.511 24.9026 404.273 24.9026C410.059 24.9026 410.059 25.0002 415.821 25.0002C421.583 25.0002 421.607 24.927 427.369 24.927C428.101 24.927 428.76 25.4153 428.76 26.1477C428.76 33.1546 428.76 33.1546 428.76 40.1615C428.76 47.1685 428.663 47.1685 428.663 54.1754C428.663 54.9078 428.101 55.6647 427.393 55.6647C421.607 55.6647 421.607 55.2984 415.845 55.2984C410.059 55.2984 410.059 55.6647 404.297 55.6647C398.511 55.6647 398.511 55.567 392.749 55.567C386.963 55.567 386.963 55.6158 381.201 55.6158C375.44 55.6158 375.415 55.3961 369.653 55.3961C368.921 55.3961 368.433 54.8834 368.433 54.151C368.433 47.144 368.384 47.144 368.384 40.1371C368.384 33.1302 368.066 33.1302 368.066 26.1233C368.066 25.4641 368.896 25.1223 369.629 25.1223Z" fill="#C4C4C4"/>
<path d="M404.297 56.7145C401.392 56.7145 399.927 56.6901 398.511 56.6656C397.095 56.6412 395.63 56.6168 392.749 56.6168C389.868 56.6168 388.404 56.8121 386.988 56.8121C385.571 56.8121 384.107 56.6656 381.201 56.6656C378.296 56.6656 376.807 56.6168 375.391 56.568C373.975 56.5192 372.51 56.4703 369.653 56.4703C368.384 56.4703 367.456 55.5426 367.456 54.2486C367.456 50.7574 367.432 48.9751 367.432 47.2417C367.407 45.5083 367.407 43.726 367.407 40.2348C367.407 36.7435 367.334 34.9857 367.261 33.2767C367.187 31.5433 367.114 29.761 367.114 26.221C367.114 25.0247 368.188 24.1702 369.678 24.1702C372.559 24.1702 374.024 24.3411 375.44 24.3167C376.856 24.2922 378.32 24.1213 381.226 24.1213C384.107 24.1213 385.571 24.0969 386.988 24.0725C388.404 24.0481 389.893 24.1946 392.774 24.1946C395.655 24.1946 397.119 23.9993 398.536 23.9993C399.952 23.9993 401.416 23.9749 404.322 23.9749C407.227 23.9749 408.692 23.9993 410.108 24.0237C411.524 24.0481 412.989 24.0725 415.87 24.0725C418.751 24.0725 420.215 24.0481 421.631 24.0481C423.048 24.0237 424.512 24.0237 427.418 24.0237C428.76 24.0237 429.786 25.0003 429.786 26.2454C429.786 29.761 429.615 31.3236 429.591 33.0814C429.591 34.8392 429.761 36.768 429.761 40.2592C429.761 43.7749 430.054 43.5796 429.713 47.2905C429.566 48.9996 429.664 50.7818 429.664 54.273C429.664 55.4693 428.76 56.7389 427.393 56.7389C424.464 56.7389 422.999 56.6412 421.558 56.568C420.142 56.4703 418.702 56.3971 415.845 56.3971C412.989 56.3971 411.548 56.4947 410.132 56.5924C408.692 56.6168 407.203 56.7145 404.297 56.7145ZM392.725 54.6393C395.63 54.6393 397.095 54.6637 398.511 54.6881C399.927 54.7125 401.392 54.7369 404.273 54.7369C407.129 54.7369 408.57 54.6393 409.986 54.5416C411.426 54.444 412.916 54.3463 415.821 54.3463C418.751 54.3463 420.215 54.4439 421.656 54.5172C423.072 54.6148 424.512 54.6881 427.369 54.6881C427.466 54.6881 427.662 54.4439 427.662 54.1998C427.662 50.6841 427.54 48.9019 427.711 47.1685C428.052 43.6772 427.759 43.6772 427.759 40.186C427.759 36.6703 427.393 35.2787 427.393 33.5453C427.393 31.7874 427.759 29.6878 427.759 26.1721C427.759 26.0257 427.54 25.928 427.369 25.928C424.488 25.928 423.023 25.9524 421.607 25.9524C420.191 25.9768 418.726 25.9768 415.821 25.9768C412.916 25.9768 411.451 25.9524 410.035 25.928C408.619 25.9036 407.154 25.8792 404.273 25.8792C401.392 25.8792 399.927 25.8792 398.511 25.9036C397.095 25.9036 395.63 26.0989 392.725 26.0989C389.844 26.0989 388.379 25.9524 386.963 25.9768C385.547 26.0012 384.058 26.0257 381.177 26.0257C378.296 26.0257 376.831 26.221 375.415 26.221C373.999 26.2454 372.534 26.0745 369.629 26.0745C369.336 26.0745 369.116 26.1477 369.043 26.221C369.043 29.6634 369.116 31.4212 369.189 33.1302C369.263 34.8636 369.336 36.6459 369.336 40.186C369.336 43.6772 369.36 45.4595 369.36 47.1929C369.385 48.9263 369.385 50.7086 369.385 54.1998C369.385 54.4195 369.482 54.4439 369.605 54.4439C372.51 54.4439 373.999 54.4928 375.415 54.5416C376.831 54.5904 378.296 54.6393 381.153 54.6393C384.033 54.6393 385.498 54.8102 386.914 54.7858C388.379 54.8346 389.844 54.6393 392.725 54.6393Z" fill="black"/>
<path d="M328.049 68.5555C332.566 71.1678 332.493 71.3387 337.009 73.951C341.526 76.5634 341.575 76.5145 346.091 79.1269C346.726 79.4931 346.922 80.2743 346.555 80.9091C344.92 83.7168 344.944 83.7412 343.333 86.5488C342.966 87.1836 342.161 87.4033 341.526 87.0371C337.009 84.4248 337.058 84.3271 332.541 81.7148C328.025 79.1025 328 79.1024 323.484 76.4901C322.849 76.1239 322.605 75.4159 322.971 74.7811C324.607 71.9735 324.582 71.9491 326.194 69.1414C326.56 68.5066 327.414 68.1892 328.049 68.5555Z" fill="black"/>
<path d="M342.186 88.209C341.795 88.209 341.405 88.1114 341.038 87.8917C338.768 86.5733 337.62 85.8897 336.522 85.2061C335.423 84.5469 334.056 84.2051 332.054 82.5449C330.076 80.9092 328.66 80.5918 327.537 79.9326C326.414 79.2734 325.267 78.6386 322.996 77.3203C321.873 76.6611 321.531 75.3671 322.117 74.244C322.899 72.8036 323.24 72.0712 323.729 71.4364C324.339 70.6551 324.534 70.0204 325.34 68.6043C325.633 68.0916 326.146 67.6766 326.732 67.5057C327.366 67.3104 328.026 67.3592 328.563 67.6766C330.833 68.995 331.981 69.703 333.079 70.3866C334.154 71.0702 335.667 71.5585 337.523 73.0722C339.549 74.7079 340.941 75.0253 342.064 75.6601C343.187 76.2949 344.359 76.9296 346.629 78.248C347.752 78.8828 348.143 80.2744 347.459 81.373C346.654 82.7158 346.239 83.4971 345.848 84.1807C345.457 84.8887 345.042 85.5967 344.237 87.0127C343.773 87.794 342.967 88.209 342.186 88.209ZM327.44 69.41C327.391 69.41 327.366 69.41 327.318 69.4344C327.195 69.4833 327.098 69.5565 327.049 69.6541C326.243 71.0702 325.828 71.7782 325.438 72.4618C325.047 73.1698 324.632 73.8778 323.826 75.2939C323.729 75.4648 323.875 75.5868 323.973 75.6601C326.243 76.954 327.366 77.6132 328.489 78.2724C329.613 78.9316 330.76 79.5664 333.031 80.8847C335.301 82.2031 336.449 82.8867 337.547 83.5703C338.646 84.2295 339.769 84.9131 342.015 86.2315C342.161 86.3291 342.381 86.2559 342.479 86.1094C343.285 84.6934 343.7 83.9854 344.09 83.3018C344.481 82.5937 344.896 81.8857 345.702 80.4697C345.799 80.2988 345.75 80.1279 345.604 80.0547C343.358 78.7607 342.186 78.1015 341.063 77.4667C339.94 76.832 338.768 76.1972 336.497 74.8788C334.227 73.5604 333.079 72.8524 331.981 72.1688C330.906 71.4852 329.783 70.8016 327.537 69.4832C327.537 69.41 327.488 69.41 327.44 69.41Z" fill="black"/>
<path d="M279.929 79.2001C284.616 76.4901 284.689 76.6122 289.353 73.9022C294.016 71.1922 293.991 71.1433 298.679 68.4334C299.314 68.0671 300.095 68.3113 300.461 68.9461C302.097 71.7537 302.072 71.7781 303.684 74.5858C304.05 75.2205 303.928 76.0995 303.293 76.4657C298.606 79.1757 298.557 79.1024 293.869 81.788C289.182 84.4736 289.23 84.5468 284.543 87.2568C283.908 87.623 282.956 87.3789 282.59 86.7441C280.954 83.9365 280.978 83.9365 279.343 81.1044C279.025 80.494 279.294 79.5663 279.929 79.2001Z" fill="#C4C4C4"/>
<path d="M283.934 88.4288C283.714 88.4288 283.494 88.4044 283.275 88.3555C282.64 88.1846 282.103 87.794 281.785 87.2569C280.98 85.8409 280.565 85.1328 280.15 84.4492C279.735 83.7412 279.344 83.0332 278.538 81.6416C277.904 80.543 278.319 79.0048 279.442 78.3701C281.785 77.0029 283.006 76.3437 284.178 75.7089C285.35 75.0741 286.009 74.2929 288.866 73.0722C291.356 72.0223 292.381 71.0213 293.529 70.3377C294.676 69.6541 295.848 68.9461 298.216 67.6034C299.315 66.9686 300.707 67.3592 301.366 68.4823C302.171 69.8983 302.586 70.6063 302.977 71.3143C303.368 72.0223 303.783 72.7304 304.588 74.122C305.248 75.2694 304.93 76.7587 303.832 77.3447C301.463 78.6142 300.218 79.1513 299.12 80.0302C298.07 80.8603 296.8 81.4951 294.432 82.6914C292.015 83.8877 290.916 84.7422 289.769 85.4258C288.621 86.1094 287.45 86.8174 285.081 88.1602C284.74 88.3311 284.349 88.4288 283.934 88.4288ZM280.418 80.0791C280.345 80.1279 280.272 80.2256 280.247 80.3476C280.223 80.4697 280.223 80.5918 280.247 80.6406C281.053 82.0566 281.468 82.7646 281.883 83.4482C282.298 84.1563 282.689 84.8643 283.494 86.2559C283.519 86.3047 283.616 86.378 283.763 86.4268C283.909 86.4756 284.032 86.4512 284.08 86.4024C286.424 85.0596 287.596 84.3516 288.744 83.668C289.891 82.9844 290.965 82.1055 293.431 80.9336C295.726 79.8349 296.922 78.7851 298.143 78.248C299.486 77.6621 300.389 76.954 302.831 75.5868C302.928 75.538 302.977 75.2695 302.855 75.0741C302.049 73.6581 301.634 72.9501 301.244 72.2421C300.853 71.5341 300.438 70.826 299.632 69.4344C299.559 69.2879 299.364 69.1903 299.193 69.2879C296.849 70.6307 295.677 71.3387 294.53 72.0223C293.382 72.7059 292.284 73.5604 289.842 74.7568C287.401 75.9775 286.278 76.7831 285.106 77.4179C283.958 78.0771 282.762 78.7119 280.418 80.0791Z" fill="black"/>
<path d="M422.093 64.6003C426.024 71.4119 425.975 71.4607 429.906 78.2723C430.272 78.9071 430.126 79.7616 429.515 80.1278C426.708 81.7635 426.659 81.6903 423.851 83.3261C423.216 83.6923 422.338 83.4725 421.971 82.8378C418.041 76.0262 418.138 75.9773 414.183 69.1413C413.817 68.5066 414.037 67.7985 414.671 67.4323C417.479 65.7966 417.479 65.7966 420.287 64.1608C420.921 63.8434 421.727 63.9655 422.093 64.6003Z" fill="white"/>
<path d="M423.144 84.498C422.949 84.498 422.754 84.4736 422.558 84.4248C421.948 84.2783 421.411 83.8633 421.118 83.3506C419.14 79.9326 418.164 78.1747 417.212 76.4901C416.259 74.8055 415.283 73.0721 413.33 69.6541C412.695 68.5555 413.061 67.2371 414.184 66.6023C415.6 65.7966 416.308 65.3816 416.992 64.9666C417.7 64.5515 418.408 64.1609 419.8 63.3308C420.312 63.0378 420.923 62.9158 421.484 63.0378C422.094 63.1599 422.632 63.5261 422.949 64.0876C424.927 67.5057 425.903 69.2391 426.855 70.9237C427.807 72.6083 428.784 74.3417 430.762 77.7597C431.055 78.2724 431.152 78.8827 431.055 79.4687C430.932 80.1279 430.542 80.6406 430.005 80.958C428.589 81.7636 427.856 82.1787 427.148 82.5693C426.465 82.9599 425.732 83.3506 424.341 84.1562C423.974 84.4004 423.559 84.498 423.144 84.498ZM421.02 64.991C420.947 64.991 420.849 65.0154 420.776 65.0642C419.384 65.8699 418.676 66.2849 417.968 66.7C417.26 67.115 416.552 67.5301 415.136 68.3357C414.892 68.4822 414.965 68.6043 415.014 68.6775C416.992 72.0955 417.968 73.829 418.921 75.538C419.873 77.2226 420.849 78.9804 422.802 82.374C422.851 82.4472 422.925 82.4961 423.022 82.5205C423.12 82.5449 423.242 82.5449 423.315 82.4961C424.731 81.6904 425.464 81.2753 426.172 80.8847C426.855 80.4941 427.588 80.1035 428.979 79.2978C429.101 79.2245 429.126 78.9804 429.028 78.7851C427.051 75.3671 426.074 73.6337 425.122 71.9491C424.17 70.2645 423.193 68.5311 421.216 65.1131C421.191 65.0642 421.167 65.0398 421.093 65.0154C421.069 64.991 421.045 64.991 421.02 64.991Z" fill="black"/>
<path d="M366.429 78.2724C370.335 71.5096 370.238 71.4608 374.144 64.7224C374.51 64.0877 375.34 63.8679 375.975 64.2342C378.783 65.8699 378.758 65.8943 381.59 67.5301C382.225 67.8963 382.469 68.702 382.127 69.3368C378.221 76.0995 378.197 76.0751 374.315 82.8379C373.949 83.4727 373.143 83.668 372.508 83.3018C369.701 81.666 369.652 81.7392 366.844 80.1035C366.185 79.7128 366.063 78.9072 366.429 78.2724Z" fill="white"/>
<path d="M373.167 84.4492C372.752 84.4492 372.361 84.3515 371.995 84.1318C370.603 83.3261 369.871 82.9355 369.187 82.5449C368.479 82.1542 367.747 81.7636 366.331 80.9335C365.257 80.2988 364.915 78.9316 365.574 77.7841C367.527 74.4149 368.479 72.6815 369.432 71.0213C370.359 69.3367 371.336 67.6033 373.289 64.2341C373.606 63.697 374.095 63.3064 374.705 63.1599C375.315 62.989 375.95 63.0866 376.463 63.3796C377.879 64.1853 378.587 64.6248 379.271 65.0398C379.954 65.4549 380.662 65.8699 382.054 66.6756C383.177 67.3347 383.568 68.7264 382.933 69.825C380.98 73.2186 380.003 74.9032 379.026 76.5878C378.05 78.2724 377.073 79.957 375.12 83.3261C374.803 83.8633 374.314 84.2539 373.704 84.4004C373.533 84.4248 373.338 84.4492 373.167 84.4492ZM375.315 65.0398C375.267 65.0398 375.242 65.0398 375.218 65.0642C375.169 65.0886 375.071 65.113 374.998 65.2107C373.045 68.5799 372.093 70.3133 371.141 71.9735C370.213 73.6581 369.236 75.3915 367.283 78.7607C367.21 78.8827 367.161 79.1269 367.308 79.2001C368.699 80.0058 369.432 80.3964 370.115 80.7871C370.823 81.1777 371.556 81.5683 372.972 82.3984C373.094 82.4716 373.191 82.4472 373.24 82.4472C373.289 82.4228 373.362 82.3984 373.436 82.3007C375.389 78.9316 376.365 77.247 377.342 75.5624C378.318 73.8778 379.295 72.1932 381.248 68.7996C381.297 68.7264 381.297 68.6531 381.273 68.5799C381.248 68.4822 381.175 68.409 381.077 68.3602C379.661 67.5545 378.953 67.115 378.27 66.7C377.586 66.2849 376.878 65.8699 375.486 65.0642C375.413 65.0398 375.364 65.0398 375.315 65.0398Z" fill="black"/>
<path d="M481.715 85.2061C481.715 79.7373 481.837 79.7373 481.837 74.2685C481.837 68.7996 481.739 68.7996 481.739 63.3308C481.739 57.862 481.666 57.862 481.666 52.3932C481.666 46.9244 481.861 46.9244 481.861 41.4556C481.861 35.9868 481.568 35.9868 481.568 30.518C481.568 29.7855 482.252 29.2484 482.984 29.2484C486.232 29.2484 486.232 29.0531 489.479 29.0531C490.211 29.0531 490.846 29.7855 490.846 30.518C490.846 35.9868 490.797 35.9868 490.797 41.4556C490.797 46.9244 491.066 46.9244 491.066 52.3932C491.066 57.862 490.943 57.862 490.943 63.3308C490.943 68.7996 490.699 68.7996 490.699 74.2685C490.699 79.7373 490.65 79.7373 490.65 85.2061C490.65 85.9385 490.211 86.7686 489.479 86.7686C486.232 86.7686 486.232 86.5489 482.984 86.5489C482.252 86.5489 481.715 85.9385 481.715 85.2061Z" fill="black"/>
<path d="M489.479 87.7452C487.818 87.7452 486.988 87.6964 486.158 87.6475C485.328 87.5987 484.571 87.5499 482.96 87.5499C481.715 87.5499 480.689 86.5001 480.689 85.2061C480.689 82.4473 480.714 81.0557 480.763 79.7129C480.787 78.3701 480.836 76.9785 480.836 74.2685C480.836 71.5341 480.812 70.1425 480.787 68.8241C480.763 67.4813 480.738 66.0897 480.738 63.3309C480.738 60.5964 480.714 59.2048 480.714 57.862C480.689 56.5192 480.689 55.1276 480.689 52.3688C480.689 49.61 480.738 48.2184 480.787 46.8512C480.836 45.5084 480.885 44.1412 480.885 41.4068C480.885 38.6968 480.812 37.3296 480.738 35.9868C480.665 34.6196 480.592 33.228 480.592 30.4691C480.592 29.224 481.666 28.223 482.984 28.223C484.571 28.223 485.353 28.1742 486.183 28.1254C486.988 28.0765 487.843 28.0277 489.503 28.0277C490.773 28.0277 491.871 29.1752 491.871 30.4691C491.871 33.2035 491.847 34.5952 491.847 35.9624C491.847 37.3052 491.822 38.6968 491.822 41.4312C491.822 44.1412 491.896 45.5328 491.944 46.8512C492.018 48.2184 492.067 49.61 492.067 52.3688C492.067 55.1276 492.042 56.5192 491.993 57.862C491.969 59.2048 491.92 60.5964 491.92 63.3064C491.92 66.0652 491.847 67.4569 491.798 68.8241C491.749 70.1669 491.676 71.5341 491.676 74.244C491.676 76.9785 491.652 78.3701 491.652 79.7373C491.652 81.0801 491.627 82.4717 491.627 85.2061C491.651 86.4268 490.821 87.7452 489.479 87.7452ZM489.479 29.9809C487.892 29.9809 487.11 30.0297 486.28 30.0785C485.475 30.1273 484.62 30.1762 482.96 30.1762C482.74 30.1762 482.545 30.3227 482.545 30.4447C482.545 33.1547 482.618 34.5219 482.691 35.8647C482.765 37.2319 482.838 38.6235 482.838 41.3824C482.838 44.1412 482.789 45.5328 482.74 46.9C482.691 48.2428 482.643 49.61 482.643 52.3444C482.643 55.0788 482.667 56.4704 482.667 57.8132C482.691 59.156 482.691 60.5476 482.691 63.3064C482.691 66.0408 482.716 67.4324 482.74 68.7508C482.765 70.0936 482.789 71.4852 482.789 74.244C482.789 77.0029 482.765 78.3945 482.716 79.7373C482.691 81.0801 482.643 82.4717 482.643 85.1817C482.643 85.3526 482.74 85.5479 482.911 85.5479C484.571 85.5479 485.401 85.5967 486.232 85.6455C487.037 85.6944 487.818 85.7432 489.405 85.7432C489.479 85.67 489.601 85.4258 489.601 85.1573C489.601 82.4229 489.625 81.0312 489.625 79.664C489.625 78.3212 489.65 76.9296 489.65 74.1952C489.65 71.4364 489.723 70.0448 489.772 68.6776C489.82 67.3348 489.894 65.9676 489.894 63.2576C489.894 60.4988 489.918 59.1072 489.967 57.7644C489.991 56.4216 490.04 55.03 490.04 52.32C490.04 49.61 489.967 48.2184 489.918 46.9C489.845 45.5328 489.796 44.1412 489.796 41.3824C489.796 38.648 489.82 37.2563 489.82 35.8891C489.82 34.5463 489.845 33.1547 489.845 30.4203C489.869 30.2494 489.625 29.9809 489.479 29.9809Z" fill="black"/>
<path d="M522.243 36.3774C528.468 39.9663 528.493 39.9663 534.718 43.5552C535.353 43.9214 535.597 44.6538 535.231 45.2886C533.595 48.0962 533.693 48.1451 532.057 50.9771C531.691 51.6119 530.788 51.8316 530.153 51.4654C523.927 47.8765 523.927 47.8521 517.702 44.2388C517.067 43.8726 516.823 42.9936 517.189 42.3589C518.825 39.5512 518.922 39.6001 520.534 36.7924C520.9 36.1821 521.632 36.0111 522.243 36.3774Z" fill="black"/>
<path d="M530.836 52.6129C530.445 52.6129 530.03 52.5153 529.689 52.3199C526.563 50.5133 525.025 49.61 523.463 48.7066C521.9 47.8033 520.362 46.9 517.237 45.0933C516.7 44.8003 516.309 44.2632 516.139 43.6529C515.968 43.0425 516.041 42.3833 516.358 41.8462C517.188 40.4302 517.628 39.7222 518.043 39.0386C518.458 38.3794 518.897 37.6714 519.703 36.2797C520.338 35.1811 521.656 34.8393 522.755 35.4741C525.88 37.2807 527.442 38.1596 528.98 39.063C530.543 39.9663 532.106 40.8452 535.231 42.6519C536.354 43.2867 536.72 44.6539 536.109 45.7525C535.304 47.1441 534.913 47.8765 534.547 48.5601C534.156 49.2682 533.766 50.0006 532.936 51.4166C532.496 52.1979 531.666 52.6129 530.836 52.6129ZM521.583 37.1587C521.559 37.1587 521.559 37.1587 521.534 37.1587C521.485 37.1831 521.436 37.2075 521.388 37.2807C520.558 38.6968 520.118 39.4048 519.703 40.0884C519.288 40.7476 518.849 41.4556 518.043 42.8472C517.945 42.9937 518.043 43.2622 518.189 43.3599C521.314 45.1666 522.852 46.0699 524.415 46.9732C525.978 47.8765 527.516 48.7799 530.641 50.5865C530.714 50.6354 530.836 50.6354 530.958 50.6109C531.056 50.5865 531.153 50.5133 531.202 50.44C532.008 49.0484 532.398 48.316 532.765 47.6324C533.155 46.9244 533.546 46.192 534.376 44.7759C534.498 44.5562 534.303 44.4341 534.23 44.3853C531.105 42.5786 529.542 41.6997 528.004 40.7964C526.441 39.8931 524.879 39.0141 521.754 37.2075C521.681 37.1831 521.632 37.1587 521.583 37.1587Z" fill="black"/>
<path d="M527.833 15.5519C534.058 19.1408 534.107 19.0919 540.333 22.6809C540.968 23.0471 541.114 23.8283 540.748 24.4631C539.112 27.2708 539.112 27.2708 537.476 30.0784C537.11 30.7132 536.402 30.9329 535.767 30.5667C529.542 26.9778 529.542 26.9778 523.292 23.3645C522.657 22.9982 522.388 22.217 522.754 21.5822C524.39 18.7746 524.463 18.8234 526.099 15.9913C526.49 15.381 527.198 15.1857 527.833 15.5519Z" fill="white"/>
<path d="M536.426 31.7386C536.036 31.7386 535.645 31.641 535.303 31.4212L522.827 24.219C522.315 23.926 521.924 23.4377 521.729 22.8762C521.534 22.2659 521.607 21.6311 521.924 21.094C522.754 19.6779 523.194 18.9699 523.609 18.2863C524.024 17.6027 524.463 16.9191 525.269 15.5275C525.904 14.4289 527.222 14.0626 528.345 14.6974C531.446 16.5041 533.057 17.383 534.595 18.2619C536.133 19.1408 537.745 20.0197 540.87 21.8264C541.968 22.4612 542.31 23.8284 541.651 24.9758C540.845 26.3919 540.43 27.0755 540.015 27.7835C539.6 28.4915 539.185 29.1751 538.379 30.5911C538.062 31.1283 537.598 31.4945 537.037 31.6654C536.817 31.7142 536.622 31.7386 536.426 31.7386ZM527.173 16.3576C527.1 16.3576 527.027 16.4064 526.978 16.5041C526.148 17.9201 525.708 18.6281 525.293 19.3117C524.878 19.9953 524.439 20.6789 523.633 22.0705C523.633 22.095 523.584 22.1438 523.609 22.2659C523.633 22.3635 523.706 22.4368 523.804 22.51L536.28 29.7122C536.353 29.7611 536.402 29.7611 536.451 29.7611C536.5 29.7366 536.573 29.6878 536.622 29.5902C537.427 28.1741 537.842 27.4661 538.257 26.7825C538.672 26.0745 539.087 25.3909 539.893 23.9749C539.942 23.8772 540.015 23.6575 539.844 23.5354C536.744 21.7287 535.132 20.8498 533.594 19.9709C532.056 19.092 530.445 18.2131 527.32 16.4064C527.271 16.382 527.222 16.3576 527.173 16.3576Z" fill="black"/>
<path d="M453.003 67.8719C456.616 61.6218 456.641 61.6462 460.229 55.3962C463.843 49.1461 463.77 49.1217 467.383 42.8716C467.749 42.2368 468.555 42.1148 469.189 42.481C471.997 44.1167 472.046 44.0435 474.854 45.6792C475.488 46.0455 475.708 46.8511 475.366 47.4859C471.753 53.736 471.753 53.736 468.164 59.9861C464.551 66.2361 464.502 66.1873 460.889 72.4374C460.522 73.0721 459.839 73.1942 459.204 72.828C456.396 71.1922 456.25 71.4364 453.442 69.8006C452.807 69.4344 452.637 68.5067 453.003 67.8719Z" fill="white"/>
<path d="M459.913 74.0243C459.498 74.0243 459.083 73.9022 458.717 73.6825C457.349 72.9012 456.641 72.5594 455.909 72.2176C455.176 71.8758 454.395 71.5096 452.955 70.6795C452.418 70.3622 452.027 69.825 451.881 69.1659C451.758 68.5555 451.856 67.9207 452.149 67.408C453.956 64.283 454.883 62.696 455.762 61.1824C456.666 59.6443 457.276 57.862 459.376 54.9323C461.5 52.0026 462.086 50.2203 462.94 48.6822C463.819 47.1441 464.893 45.5328 466.529 42.4077C466.822 41.8462 467.359 41.48 467.994 41.3579C468.555 41.2603 469.19 41.2847 469.679 41.6509C471.021 42.6519 471.803 42.8472 472.486 43.2378C473.194 43.6285 473.707 44.0923 475.343 44.8492C475.904 45.1177 476.27 45.6549 476.417 46.2408C476.588 46.8512 476.515 47.4615 476.197 47.9986C474.391 51.1237 473.17 52.7106 472.413 54.4196C471.681 56.0798 471.021 57.4958 468.995 60.4744C467.066 63.3064 466.261 65.1863 465.357 66.7244C464.454 68.2381 463.526 69.825 461.719 72.9501C461.402 73.4872 460.914 73.8778 460.328 73.9999C460.23 73.9999 460.059 74.0243 459.913 74.0243ZM468.458 43.2867C468.433 43.2867 468.409 43.2867 468.385 43.2867C468.311 43.3111 468.263 43.3355 468.263 43.3843C466.456 46.5094 465.553 48.0963 464.698 49.6344C463.819 51.1725 463.135 52.8815 461.109 55.9089C459.107 58.9118 458.375 60.6208 457.496 62.1589C456.592 63.697 455.689 65.2596 453.882 68.3846C453.785 68.5799 453.834 68.8973 453.956 68.9461C455.323 69.7274 456.031 70.0692 456.763 70.411C457.496 70.7528 458.277 71.119 459.717 71.9491C459.84 72.0223 459.913 72.0223 459.962 72.0223C460.01 72.0223 460.035 71.9491 460.059 71.9247C461.866 68.7996 462.794 67.2127 463.697 65.699C464.6 64.1853 465.308 62.4031 467.335 59.4734C469.386 56.4948 470.167 54.8591 470.948 53.2233C471.803 51.441 472.755 50.0983 474.561 46.9732C474.61 46.8756 474.61 46.7779 474.586 46.7291C474.488 46.5582 474.537 46.5826 474.415 46.5093C473.023 45.7037 472.511 45.2886 471.607 44.9224C470.85 44.6294 470.167 44.1412 468.751 43.3111C468.629 43.3111 468.556 43.2867 468.458 43.2867Z" fill="black"/>
<path d="M606.618 77.9794C612.844 74.3905 612.795 74.3173 619.021 70.7284C625.246 67.1395 625.32 67.2859 631.545 63.697C632.18 63.3308 632.912 63.4529 633.279 64.0877C634.914 66.8953 634.988 66.8465 636.623 69.6541C636.99 70.2889 636.745 71.2167 636.111 71.5829C629.885 75.1718 629.909 75.1962 623.684 78.7851C617.458 82.374 617.409 82.2763 611.184 85.8653C610.549 86.2315 609.719 86.0117 609.353 85.4014C607.717 82.5937 607.79 82.5449 606.154 79.7372C605.788 79.0781 605.983 78.3456 606.618 77.9794Z" fill="#FFF8F8"/>
<path d="M610.5 87.0127C610.305 87.0127 610.11 86.9883 609.914 86.9395C609.304 86.793 608.791 86.4024 608.498 85.8653C607.668 84.4492 607.033 82.8867 606.643 82.1787C606.252 81.4707 606.106 81.5927 605.3 80.2011C604.983 79.664 604.665 79.3222 605.056 78.4677C605.324 77.9306 605.764 77.4179 606.301 77.1005C609.402 75.3183 609.621 75.3427 611.135 74.4393C612.649 73.536 616.262 71.6561 619.241 69.6541C622.268 67.6033 623.245 67.1639 624.807 66.3094C626.345 65.4549 627.957 64.6004 631.057 62.7937C631.57 62.5007 632.18 62.3787 632.717 62.5007C633.328 62.6228 633.816 62.989 634.133 63.5505C634.939 64.9422 635.378 65.6502 635.793 66.3094C636.233 66.993 636.672 67.701 637.478 69.117C637.771 69.6541 637.869 70.3133 637.698 70.9237C637.527 71.5584 637.307 71.9247 636.794 72.2176C633.694 73.9999 632.18 75.1474 631.301 75.4403C629.592 76.0263 627.297 77.7841 624.172 79.5908C621.047 81.3974 619.46 82.2763 617.898 83.1308C616.36 83.9853 614.773 84.8643 611.672 86.6709C611.306 86.9151 610.891 87.0127 610.5 87.0127ZM632.253 64.4539C632.18 64.4539 632.107 64.4783 632.034 64.5271C628.909 66.3338 627.126 67.0174 625.564 67.8719C624.026 68.7264 622.61 69.7762 619.509 71.5584C616.409 73.3407 615.017 73.9266 613.503 74.83C611.99 75.7333 610.232 77.0273 607.107 78.8339C607.033 78.8828 606.985 78.9316 606.96 79.0048C606.936 79.0781 606.96 79.1757 607.009 79.2245C607.717 80.2255 608.083 81.2998 608.425 82.081C608.767 82.789 609.377 83.4971 610.183 84.8887C610.232 84.9863 610.329 85.0107 610.378 85.0352C610.427 85.0596 610.549 85.0596 610.647 85.0107C613.772 83.2041 615.359 82.3252 616.921 81.4707C618.459 80.6162 620.046 79.7373 623.147 77.9306C626.272 76.1239 628.396 74.7811 630.081 74.1464C631.594 73.5848 632.668 72.8524 635.574 70.7284C635.647 70.6795 635.72 70.5819 635.745 70.4598C635.769 70.3377 635.769 70.2157 635.72 70.1424C634.915 68.7508 634.475 68.0428 634.06 67.3836C633.645 66.7 633.181 65.992 632.375 64.5759C632.327 64.5027 632.278 64.4783 632.278 64.4783C632.278 64.4539 632.278 64.4539 632.253 64.4539Z" fill="#030001"/>
<path d="M307.494 7.20235C308.032 7.17793 308.227 7.54415 308.618 7.17793C308.813 6.98262 308.764 6.7873 308.764 6.49433C308.764 4.12614 308.764 4.12614 308.764 1.73354C308.764 1.00111 309.106 0.756963 309.838 0.756963C313.037 0.756963 313.037 0.58606 316.259 0.58606C316.992 0.58606 317.626 1.00111 317.626 1.73354C317.626 4.10173 317.773 4.10173 317.871 6.46992C317.895 6.93379 317.529 7.05586 317.871 7.37325C318.115 7.61739 318.212 7.59298 318.579 7.59298C325.39 7.64181 325.39 7.54415 332.202 7.54415C339.013 7.54415 339.013 7.12911 345.825 7.12911C346.557 7.12911 347.461 8.05685 347.461 8.78928C347.461 11.9631 347.021 11.9631 347.021 15.137C347.021 15.8694 346.533 16.1868 345.801 16.1868C340.234 16.1868 340.234 16.7484 334.643 16.7484C329.077 16.7484 329.077 16.553 323.486 16.553C317.919 16.553 317.919 16.3333 312.329 16.3333C306.762 16.3333 306.762 16.3333 301.171 16.3333C295.605 16.3333 295.605 16.3577 290.014 16.3577C284.447 16.3577 284.447 16.2845 278.856 16.2845C278.124 16.2845 277.782 15.8939 277.782 15.1614C277.782 11.9876 277.758 11.9876 277.758 8.81369C277.758 8.08126 278.124 7.73947 278.856 7.73947C286.01 7.73947 286.01 7.4709 293.163 7.44649C300.365 7.42208 300.341 7.39766 307.494 7.20235Z" fill="#C4C4C4"/>
<path d="M334.813 18.091C332.006 18.091 330.589 18.0422 329.198 17.9934C327.831 17.9445 326.439 17.8957 323.656 17.8957C320.848 17.8957 319.432 17.8469 318.041 17.7736C316.673 17.7248 315.282 17.676 312.498 17.676C309.715 17.676 308.324 17.676 306.932 17.676C305.54 17.676 304.149 17.676 301.366 17.676C298.582 17.676 297.191 17.676 295.799 17.676C294.407 17.676 293.016 17.676 290.233 17.676C287.449 17.676 286.009 17.6516 284.642 17.6516C283.274 17.6271 281.858 17.6272 279.075 17.6272C277.83 17.6272 277 16.7971 277 15.5275C277 13.9406 277 13.1593 277 12.3781C277 11.5724 277 10.7911 277 9.20421C277 7.93466 277.806 7.12899 279.1 7.12899C283.079 7.12899 284.837 7.05575 286.863 7.00692C288.45 6.95809 290.233 6.88484 293.406 6.83601C296.409 6.78719 298.143 6.73836 299.681 6.71394C301.854 6.66511 303.563 6.61629 307.738 6.61629C307.884 6.61629 307.957 6.49421 308.006 6.37214C308.202 5.6153 308.079 5.07818 308.006 4.51665C307.835 2.92972 308.006 2.39261 308.006 2.12405C308.006 1.53811 308.202 0.146488 310.057 0.146488C311.644 0.146488 312.401 0.0976544 313.206 0.07324C314.012 0.0244114 314.842 0 316.454 0C317.796 0 318.797 0.927748 318.797 2.12405C318.797 3.27152 318.846 3.80864 318.919 4.39458C318.993 5.00494 319.041 5.63971 319.041 6.88485C319.041 6.93367 319.041 6.9825 319.041 7.00692C322.264 7.00692 323.924 6.9825 325.56 6.9825C327.245 6.95809 328.978 6.95809 332.372 6.95809C335.741 6.95809 337.45 6.86043 339.11 6.76277C340.795 6.66512 342.552 6.54304 345.97 6.54304C347.24 6.54304 348.607 7.91025 348.607 9.17979C348.607 10.84 348.485 11.6701 348.388 12.4757C348.29 13.257 348.192 13.9894 348.192 15.5031C348.192 16.7482 347.338 17.5539 345.995 17.5539C343.261 17.5539 341.918 17.676 340.526 17.8225C339.086 17.9445 337.645 18.091 334.813 18.091ZM301.366 15.674C304.149 15.674 305.54 15.674 306.932 15.674C308.324 15.674 309.715 15.674 312.498 15.674C315.306 15.674 316.722 15.7228 318.114 15.7961C319.481 15.8449 320.873 15.8937 323.656 15.8937C326.463 15.8937 327.879 15.9426 329.271 15.9914C330.638 16.0402 332.03 16.089 334.813 16.089C337.548 16.089 338.89 15.967 340.282 15.8205C341.674 15.674 343.114 15.5275 345.946 15.5275C346.044 15.5275 346.117 15.5275 346.166 15.5031V15.4787C346.166 13.8185 346.288 12.9884 346.386 12.1828C346.483 11.4015 346.581 10.6691 346.581 9.17979C346.581 9.15538 346.581 9.13096 346.581 9.13096C346.532 8.93565 346.166 8.54501 345.946 8.49619C345.922 8.49619 345.897 8.49619 345.897 8.49619C342.552 8.49619 340.843 8.59385 339.183 8.6915C337.499 8.78916 335.741 8.91123 332.323 8.91123C328.929 8.91123 327.196 8.93565 325.511 8.93565C323.827 8.96006 322.093 8.96006 318.7 8.96006C318.626 8.96006 318.578 8.98447 318.504 8.98447C318.016 9.00889 317.577 8.74033 317.284 8.47178C316.82 8.03232 316.893 7.64169 316.917 7.20223C316.917 7.03133 316.82 5.98151 316.917 5.59088C316.917 4.61431 316.942 5.12701 316.893 4.56548C316.82 3.95513 316.771 3.32035 316.771 2.07522C316.771 1.92873 316.405 1.92873 316.405 1.92873C314.818 1.92873 314.061 1.97756 313.255 2.00198C312.45 2.05081 311.62 2.07522 310.008 2.07522C309.984 2.07522 309.959 2.07522 309.935 2.07522C309.935 3.24711 309.764 3.41801 309.764 4.12602C309.764 4.66314 309.935 4.83404 309.935 5.56647C309.935 5.63971 309.959 6.9825 309.959 7.08016C310.008 7.42196 310.106 7.73934 309.569 8.27646C309.325 8.5206 309.032 8.64268 307.616 8.59385C307.591 8.59385 305.125 8.56943 304.881 8.54502H304.832C300.828 8.54502 301.829 8.59384 299.705 8.64267C298.167 8.6915 296.409 8.74033 293.406 8.76474C290.257 8.81357 288.475 8.8624 286.912 8.91123C284.861 8.98448 283.104 9.0333 279.075 9.0333C279.026 9.0333 279.002 9.0333 278.978 9.0333C278.978 9.05772 278.978 9.08213 278.978 9.10654C278.978 10.6935 278.978 11.4747 278.978 12.256C278.978 13.0617 278.978 13.8429 278.978 15.4299C278.978 15.4787 278.978 15.5275 278.978 15.5519C279.002 15.5519 279.026 15.5519 279.051 15.5519C281.834 15.5519 283.274 15.5763 284.642 15.5763C286.009 15.6008 287.425 15.6008 290.208 15.6008C292.991 15.6008 294.383 15.6008 295.775 15.6008C297.191 15.6984 298.582 15.674 301.366 15.674Z" fill="black"/>
<path d="M392.969 9.05769C393.457 9.05769 393.824 9.59481 394.165 9.25301C394.507 8.9112 393.775 8.54499 393.775 8.0567C393.775 5.71293 394.287 5.71292 394.287 3.36915C394.287 2.63672 394.556 2.36817 395.288 2.36817C398.438 2.36817 398.438 2.34375 401.587 2.34375C402.32 2.34375 402.662 2.63672 402.662 3.36915C402.662 5.71292 402.832 5.71293 402.832 8.0567C402.832 8.54499 402.564 8.66706 402.93 9.00886C403.272 9.35066 403.394 8.78913 403.882 8.78913C410.743 8.78913 410.743 9.08211 417.603 9.08211C424.464 9.08211 424.464 8.86237 431.324 8.86237C432.056 8.86237 432.471 9.64364 432.471 10.3761C432.471 13.5988 432.545 13.5988 432.545 16.8215C432.545 17.5539 432.056 18.0178 431.348 18.0178C425.88 18.0178 425.88 17.798 420.386 17.798C414.918 17.798 414.918 18.4328 409.424 18.4328C403.956 18.4328 403.956 17.9689 398.462 17.9689C392.993 17.9689 392.993 18.4572 387.5 18.4572C382.007 18.4572 382.007 17.8469 376.538 17.8469C371.045 17.8469 371.045 18.1642 365.576 18.1642C364.844 18.1642 364.478 17.5295 364.478 16.797C364.478 13.5743 364.087 13.5743 364.087 10.3517C364.087 9.61922 364.844 8.78913 365.576 8.78913C372.412 8.78913 372.412 8.7403 379.273 8.7403C386.133 8.7403 386.109 9.05769 392.969 9.05769Z" fill="black"/>
<path d="M387.5 19.2873C384.717 19.2873 383.277 19.3117 381.909 19.1652C380.518 19.0188 379.224 18.8723 376.538 18.8723C373.828 18.8723 372.461 18.9455 371.118 19.0432C369.751 19.1164 368.359 19.2141 365.576 19.2141C364.355 19.2141 363.477 18.2131 363.477 16.8459C363.477 15.2834 363.379 14.5509 363.281 13.7453C363.184 12.9152 363.086 12.0851 363.086 10.4005C363.086 9.10654 364.307 7.86141 365.552 7.86141C368.897 7.86141 370.606 7.86141 372.266 7.83699C374.048 7.81258 375.733 7.81258 379.224 7.81258C382.666 7.81258 384.4 7.88582 386.084 7.95906C387.72 8.03231 389.429 8.10555 392.725 8.10555C392.725 8.10555 392.725 8.10555 392.725 8.08113C392.725 6.81159 392.871 6.12799 392.994 5.51763C393.116 4.98051 393.238 4.4434 393.238 3.39358C393.238 2.12403 393.946 1.41602 395.215 1.41602C396.778 1.41602 397.583 1.41602 398.365 1.41602C399.146 1.41602 399.952 1.41602 401.514 1.41602C402.808 1.41602 403.589 2.17286 403.589 3.41799C403.589 4.54105 403.638 5.10258 403.687 5.68852C403.736 6.25005 403.785 6.81159 403.785 7.86141C403.809 7.86141 403.833 7.86141 403.833 7.86141C407.276 7.86141 409.034 7.93464 410.743 8.00789C412.427 8.08113 414.161 8.15437 417.579 8.15437C420.997 8.15437 422.73 8.10555 424.415 8.0323C426.099 7.98347 427.857 7.91023 431.324 7.91023C432.667 7.91023 433.448 9.17978 433.448 10.4005C433.448 12.0118 433.472 12.8175 433.472 13.5988C433.497 14.4044 433.497 15.2101 433.497 16.8459C433.497 18.1154 432.569 19.0432 431.3 19.0432C428.541 19.0432 427.149 18.9943 425.782 18.9455C424.439 18.8967 423.072 18.8479 420.338 18.8479C417.652 18.8479 416.358 18.9943 414.966 19.1652C413.599 19.3117 412.159 19.4826 409.376 19.4826C406.592 19.4826 405.176 19.3606 403.809 19.2385C402.417 19.1164 401.099 19.0188 398.413 19.0188C395.728 19.0188 394.41 19.1408 393.018 19.2629C391.7 19.3361 390.284 19.2873 387.5 19.2873ZM376.538 16.8703C379.321 16.8703 380.762 17.0168 382.129 17.1877C383.521 17.3342 384.815 17.4807 387.5 17.4807C390.186 17.4807 391.504 17.3586 392.896 17.2365C394.263 17.1144 395.679 16.9924 398.462 16.9924C401.246 16.9924 402.662 17.1144 404.029 17.2365C405.42 17.3586 406.739 17.4562 409.424 17.4562C412.11 17.4562 413.404 17.3098 414.796 17.1389C416.163 16.9924 417.603 16.8215 420.386 16.8215C423.145 16.8215 424.537 16.8703 425.904 16.9191C427.247 16.9679 428.614 17.0168 431.348 17.0168C431.519 17.0168 431.568 16.9924 431.568 16.797C431.568 15.1857 431.544 14.38 431.544 13.5988C431.519 12.7931 431.519 11.9874 431.519 10.3517C431.519 10.0831 431.397 9.88779 431.348 9.83896C427.93 9.83896 426.197 9.88779 424.537 9.96103C422.852 10.0099 421.094 10.0831 417.628 10.0831C414.185 10.0831 412.427 10.0099 410.718 9.93663C409.058 9.86338 407.349 9.79014 404.004 9.79014C403.125 10.4493 402.466 9.96103 402.222 9.71689C401.587 9.08212 401.758 8.47177 401.807 8.22762C401.831 8.15438 401.831 8.10555 401.831 8.05672C401.831 6.93366 401.783 6.37213 401.734 5.78619C401.685 5.20024 401.636 4.58988 401.636 3.36916V3.34475C401.612 3.34475 401.587 3.34475 401.539 3.34475C399.976 3.34475 399.17 3.34475 398.389 3.34475C397.608 3.34475 396.802 3.34475 395.24 3.34475C395.24 4.6143 395.093 5.2979 394.971 5.90826C394.849 6.44538 394.751 6.93366 394.727 7.91023C394.751 7.93465 394.776 7.98347 394.8 8.00789C395.533 8.98446 395.142 9.61924 394.825 9.93663C394.117 10.6446 393.286 10.2296 393.018 10.1075C392.969 10.0831 392.92 10.0587 392.871 10.0343C389.453 10.0343 387.696 9.96104 386.011 9.88779C384.351 9.81455 382.617 9.74131 379.224 9.74131C375.733 9.74131 374.048 9.74131 372.266 9.76572C370.606 9.76572 368.872 9.79014 365.527 9.79014C365.356 9.79014 365.039 10.1319 365.039 10.3517C365.039 11.9142 365.137 12.6466 365.234 13.4523C365.332 14.2824 365.43 15.1125 365.43 16.797C365.43 17.0168 365.503 17.1389 365.527 17.1877C365.527 17.1877 365.527 17.1877 365.552 17.1877C368.262 17.1877 369.629 17.1144 370.972 17.0168C372.363 16.968 373.779 16.8703 376.538 16.8703Z" fill="black"/>
<path d="M480.763 14.6485C481.251 14.6485 481.422 14.8438 481.788 14.4776C482.155 14.1114 481.617 13.9649 481.617 13.4522C481.617 12.1094 481.959 12.1094 481.959 10.7422C481.959 10.0098 482.35 9.5459 483.082 9.5459C486.305 9.5459 486.305 9.39941 489.528 9.39941C490.26 9.39941 490.748 10.0098 490.748 10.7422C490.748 12.085 490.724 12.085 490.724 13.4522C490.724 13.9405 490.431 14.1358 490.797 14.502C491.139 14.8438 491.334 14.6485 491.847 14.6485C495.07 14.6485 495.07 14.6241 498.292 14.6241C499.025 14.6241 499.733 15.0391 499.733 15.7716C499.733 18.9698 499.586 18.9698 499.586 22.1925C499.586 22.925 499.025 23.3644 498.292 23.3644C492.897 23.3644 492.897 23.6818 487.501 23.6818C482.106 23.6818 482.106 23.5841 476.71 23.5841C471.315 23.5841 471.315 23.5353 465.919 23.5353C460.524 23.5353 460.524 23.6574 455.128 23.6574C454.396 23.6574 453.907 22.925 453.907 22.1925C453.907 18.9942 453.858 18.9942 453.858 15.7716C453.858 15.0391 454.396 14.3311 455.128 14.3311C461.549 14.3311 461.524 14.5264 467.945 14.5997C474.342 14.6729 474.342 14.6485 480.763 14.6485Z" fill="#C4C4C4"/>
<path d="M487.476 24.6829C484.766 24.6829 483.399 24.6585 482.056 24.6341C480.738 24.6097 479.37 24.5853 476.685 24.5853C473.975 24.5853 472.608 24.5853 471.289 24.5608C469.971 24.5608 468.604 24.5364 465.894 24.5364C463.208 24.5364 461.841 24.5608 460.523 24.6097C459.18 24.6341 457.813 24.6829 455.103 24.6829C453.882 24.6829 452.881 23.5843 452.881 22.2171C452.881 20.6301 452.881 19.8001 452.856 19.0188C452.856 18.2375 452.832 17.4074 452.832 15.7961C452.832 14.4777 453.857 13.3547 455.103 13.3547C458.594 13.3547 460.205 13.4035 461.939 13.4767C463.452 13.5256 464.99 13.5744 467.944 13.6232C473.438 13.672 474.17 13.6721 478.345 13.6721H480.616C480.616 13.6232 480.616 13.55 480.616 13.4767C480.616 12.6711 480.713 12.256 480.811 11.8898C480.884 11.5724 480.957 11.3283 480.957 10.7912C480.957 9.4972 481.812 8.61828 483.057 8.61828C484.644 8.61828 485.425 8.59387 486.231 8.54504C487.037 8.52063 487.867 8.4718 489.502 8.4718C490.747 8.4718 491.724 9.4972 491.724 10.7912C491.724 11.4748 491.724 11.8166 491.724 12.1584C491.724 12.5002 491.724 12.8175 491.724 13.5011C491.724 13.5744 491.724 13.6476 491.724 13.7209C491.773 13.7209 491.797 13.7209 491.846 13.7209C493.457 13.7209 494.263 13.7209 495.069 13.7209C495.875 13.7209 496.68 13.7209 498.292 13.7209C499.683 13.7209 500.733 14.6242 500.733 15.8449C500.733 17.4807 500.684 18.3108 500.66 19.092C500.611 19.8977 500.586 20.679 500.586 22.2415C500.586 23.4866 499.634 24.3899 498.292 24.3899C495.63 24.3899 494.263 24.4632 492.945 24.5364C491.602 24.5853 490.21 24.6829 487.476 24.6829ZM465.918 22.5589C468.628 22.5589 469.995 22.5589 471.314 22.5833C472.632 22.5833 473.999 22.6077 476.709 22.6077C479.419 22.6077 480.786 22.6321 482.129 22.6565C483.448 22.6809 484.815 22.7054 487.5 22.7054C490.162 22.7054 491.529 22.6321 492.847 22.5589C494.19 22.4856 495.582 22.388 498.292 22.388C498.584 22.388 498.584 22.2659 498.584 22.2171C498.584 20.5813 498.633 19.7512 498.658 18.97C498.707 18.1643 498.731 17.383 498.731 15.8205C498.707 15.7717 498.536 15.674 498.267 15.674C496.656 15.674 495.85 15.674 495.044 15.674C494.239 15.674 493.433 15.674 491.822 15.674C491.748 15.674 491.675 15.674 491.578 15.6984C491.26 15.7473 490.674 15.8205 490.064 15.2346C489.429 14.5998 489.6 13.965 489.673 13.6721C489.698 13.5744 489.698 13.5256 489.698 13.4767C489.698 12.7931 489.698 12.4513 489.698 12.1095C489.698 11.7677 489.698 11.4503 489.698 10.7667C489.698 10.7423 489.698 10.4249 489.478 10.4249C487.891 10.4249 487.11 10.4494 486.304 10.4982C485.498 10.5226 484.668 10.5714 483.033 10.5714C482.984 10.5714 482.959 10.5714 482.935 10.5714C482.935 10.5958 482.91 10.6691 482.91 10.7667C482.91 11.5724 482.813 11.9875 482.715 12.3537C482.642 12.6467 482.569 12.8908 482.569 13.3791C482.569 13.4035 482.593 13.4035 482.593 13.4279C482.691 14.551 482.691 14.7463 482.447 15.1613C481.958 15.967 481.275 15.674 480.957 15.6252C480.884 15.6252 480.811 15.6008 480.738 15.6008H478.345C474.17 15.6008 473.413 15.6008 467.92 15.552C464.966 15.5275 463.403 15.4787 461.865 15.4055C460.156 15.3566 458.545 15.2834 455.103 15.2834C454.98 15.2834 454.81 15.5031 454.81 15.7229C454.81 17.3098 454.81 18.1399 454.834 18.9211C454.834 19.7024 454.858 20.5325 454.858 22.1438C454.858 22.4124 455.029 22.6321 455.103 22.6321C457.788 22.6321 459.155 22.6077 460.474 22.5589C461.816 22.5833 463.208 22.5589 465.918 22.5589Z" fill="black"/>
<path d="M601.834 14.2824C602.322 14.2824 602.469 14.6974 602.835 14.3556C603.177 14.0138 602.64 13.8674 602.64 13.3547C602.64 12.0119 602.713 12.0119 602.713 10.6447C602.713 9.91224 603.421 9.44837 604.153 9.44837C607.425 9.44837 607.425 9.1554 610.672 9.1554C611.405 9.1554 611.844 9.91224 611.844 10.6447C611.844 16.8703 611.966 16.8703 611.966 23.1204C611.966 29.3461 612.039 29.3461 612.039 35.5961C612.039 41.8218 611.82 41.8218 611.82 48.0719C611.82 48.8043 611.38 49.2682 610.648 49.2682C607.376 49.2682 607.376 49.5611 604.129 49.5611C603.397 49.5611 602.933 48.7799 602.933 48.0719C602.933 42.188 602.64 42.188 602.64 36.3041C602.64 30.4203 602.811 30.4203 602.811 24.5364C602.811 24.0481 603.152 23.9261 602.786 23.5843C602.42 23.2425 602.322 23.5843 601.834 23.5843C598.05 23.5843 598.05 23.5354 594.266 23.5354C593.533 23.5354 593.094 22.9495 593.094 22.2415C593.094 18.97 592.972 18.97 592.972 15.6984C592.972 14.966 593.509 14.5754 594.241 14.5754C598.05 14.4777 598.05 14.2824 601.834 14.2824Z" fill="black"/>
<path d="M604.128 50.5377C602.761 50.5377 601.931 49.2437 601.931 48.0474C601.931 45.1177 601.858 43.6529 601.784 42.2124C601.711 40.7476 601.638 39.2339 601.638 36.2797C601.638 33.3256 601.687 31.8119 601.735 30.3715C601.784 28.931 601.809 27.4417 601.809 24.5364C599.929 24.5364 598.952 24.512 598.024 24.512C597.097 24.4876 596.145 24.4876 594.265 24.4876C593.02 24.4876 592.116 23.511 592.116 22.1927C592.116 20.5813 592.092 19.7512 592.067 18.97C592.043 18.1643 592.019 17.3098 592.019 15.674C592.019 14.4289 592.946 13.55 594.289 13.55C596.022 13.5256 596.95 13.4767 597.829 13.4035C598.806 13.3303 599.758 13.2814 601.662 13.2814C601.662 12.6222 601.687 12.2804 601.687 11.9386C601.711 11.5968 601.711 11.2795 601.711 10.6447C601.711 9.42397 602.785 8.44739 604.152 8.44739C605.739 8.44739 606.521 8.37415 607.326 8.30091C608.156 8.22766 609.011 8.15442 610.671 8.15442C612.014 8.15442 612.82 9.42397 612.82 10.6447C612.82 13.7453 612.844 15.3322 612.893 16.8459C612.917 18.384 612.966 19.971 612.966 23.096C612.966 26.1966 612.99 27.7835 613.015 29.3217C613.039 30.8598 613.064 32.4467 613.064 35.5717C613.064 38.6968 613.015 40.3081 612.966 41.8462C612.917 43.3599 612.868 44.9468 612.868 48.0474C612.868 49.3414 611.989 50.2447 610.72 50.2447C609.133 50.2447 608.352 50.318 607.546 50.3912C606.667 50.4645 605.813 50.5377 604.128 50.5377ZM602.492 22.388C602.785 22.388 603.127 22.4856 603.469 22.8274C604.128 23.4866 603.884 24.1702 603.811 24.39C603.786 24.4632 603.786 24.4876 603.786 24.4876C603.786 27.4417 603.737 28.9554 603.689 30.3959C603.64 31.8363 603.615 33.3256 603.615 36.2553C603.615 39.185 603.689 40.6499 603.762 42.0903C603.835 43.5552 603.908 45.0689 603.908 48.023C603.908 48.2916 604.055 48.5113 604.128 48.5357C605.715 48.5357 606.496 48.4625 607.302 48.3893C608.132 48.316 608.987 48.2428 610.647 48.2428C610.744 48.2428 610.793 48.2183 610.793 48.2183C610.793 48.2183 610.818 48.1451 610.818 48.0474C610.818 44.9224 610.866 43.3111 610.915 41.773C610.964 40.2593 611.013 38.6723 611.013 35.5717C611.013 32.4711 610.988 30.8842 610.964 29.3461C610.94 27.808 610.915 26.221 610.915 23.096C610.915 19.9954 610.891 18.4084 610.842 16.8948C610.818 15.3567 610.769 13.7697 610.769 10.6447C610.769 10.3517 610.647 10.1808 610.598 10.132C609.011 10.132 608.254 10.2052 607.424 10.2785C606.594 10.3517 605.739 10.425 604.079 10.425C603.811 10.425 603.615 10.5714 603.615 10.6447C603.615 11.3527 603.591 11.6945 603.591 12.0363C603.567 12.3537 603.567 12.6467 603.567 13.257C603.567 13.257 603.567 13.2814 603.591 13.2814C604.177 14.1359 603.762 14.7463 603.469 15.0393C603.005 15.5031 602.443 15.6008 601.809 15.2834C601.784 15.2834 601.76 15.259 601.735 15.259C599.782 15.259 598.83 15.3078 597.854 15.3811C596.95 15.4299 595.998 15.5031 594.191 15.5276C593.996 15.5276 593.923 15.5764 593.898 15.5764C593.898 15.5764 593.898 15.6008 593.898 15.6496C593.898 17.261 593.923 18.0911 593.947 18.8723C593.972 19.678 593.996 20.5325 593.996 22.1682C593.996 22.4856 594.118 22.4856 594.167 22.4856C596.071 22.4856 597.023 22.5101 597.976 22.5101C598.903 22.5345 599.856 22.5345 601.735 22.5345C601.735 22.5345 601.784 22.5101 601.809 22.5101C602.004 22.4856 602.224 22.388 602.492 22.388Z" fill="black"/>
<path d="M627.784 14.4778C628.273 14.4778 628.297 14.5755 628.639 14.2337C628.981 13.8919 628.614 13.8675 628.614 13.3792C628.614 12.0608 628.736 12.0608 628.736 10.718C628.736 9.9856 629.347 9.32642 630.079 9.32642C633.326 9.32642 633.326 9.32642 636.573 9.32642C637.306 9.32642 637.843 9.9856 637.843 10.718C637.843 12.0364 637.672 12.0364 637.672 13.3792C637.672 13.8675 637.648 13.9163 637.989 14.2825C638.331 14.6243 638.38 14.3802 638.893 14.3802C642.653 14.3802 642.653 14.2337 646.412 14.2337C647.145 14.2337 647.877 14.9661 647.877 15.6986C647.877 18.8968 647.731 18.8968 647.731 22.0951C647.731 22.8275 647.145 23.56 646.412 23.56C642.653 23.56 642.653 23.1693 638.893 23.1693C638.405 23.1693 638.185 22.9984 637.843 23.3402C637.501 23.682 638.136 23.9018 638.136 24.3901C638.136 29.7856 637.941 29.7856 637.941 35.1568C637.941 40.5523 637.672 40.5524 637.672 45.9479C637.672 51.3435 637.794 51.3435 637.794 56.7391C637.794 57.4715 637.33 58.2039 636.598 58.2039C633.351 58.2039 633.351 58.0818 630.104 58.0818C629.371 58.0818 628.663 57.4471 628.663 56.7146C628.663 51.3191 628.81 51.3191 628.81 45.9479C628.81 40.5524 628.59 40.5523 628.59 35.1568C628.59 29.7612 628.59 29.7612 628.59 24.3656C628.59 23.8774 629.005 23.8529 628.639 23.5111C628.273 23.1693 628.273 23.2914 627.784 23.2914C623.414 23.2914 623.414 23.267 619.068 23.267C618.336 23.267 617.555 22.7787 617.555 22.0463C617.555 18.848 617.896 18.848 617.896 15.6497C617.896 14.9173 618.336 14.2337 619.068 14.2337C623.414 14.3802 623.414 14.4778 627.784 14.4778Z" fill="#C4C4C4"/>
<path d="M636.574 59.2048C634.939 59.2048 634.109 59.1804 633.303 59.156C632.522 59.1316 631.692 59.1071 630.08 59.1071C628.786 59.1071 627.639 58.0085 627.639 56.7634C627.639 54.0534 627.688 52.6862 627.712 51.3434C627.736 50.025 627.785 48.6578 627.785 45.9722C627.785 43.2866 627.736 41.9439 627.688 40.6255C627.639 39.2827 627.566 37.9155 627.566 35.2055C627.566 32.5199 627.736 31.1527 627.736 29.8099C627.736 28.4427 627.639 27.0023 627.566 25.4886C627.566 25.4642 627.566 24.3411 627.566 24.3167C625.515 24.3167 624.441 24.3167 623.391 24.3167C622.292 24.3167 621.218 24.3167 619.021 24.3167C617.824 24.3167 616.506 23.4866 616.506 22.1194C616.506 20.4592 616.604 19.6292 616.677 18.8235C616.75 18.0178 616.848 17.2854 616.848 15.7229C616.848 14.3801 617.8 13.3058 619.021 13.3058H619.045C620.73 13.3547 621.755 13.3791 622.658 13.4279C624.025 13.4767 625.051 13.5256 627.59 13.5256C627.59 13.4767 627.59 13.4523 627.59 13.4035C627.59 12.6955 627.614 12.3293 627.663 11.9875C627.688 11.6701 627.712 11.3771 627.712 10.7423C627.712 9.44838 628.786 8.37415 630.056 8.37415C631.667 8.37415 632.497 8.37415 633.303 8.37415C634.109 8.37415 634.939 8.37415 636.55 8.37415C637.795 8.37415 638.796 9.44838 638.796 10.7668C638.796 11.4992 638.747 11.8898 638.698 12.2316C638.65 12.549 638.625 12.842 638.625 13.4279C638.699 13.4279 638.772 13.4279 638.845 13.4279C640.7 13.4279 641.653 13.4035 642.58 13.3547C643.508 13.3303 644.485 13.2814 646.389 13.2814C647.659 13.2814 648.83 14.4533 648.83 15.7473C648.83 17.3586 648.806 18.1887 648.757 18.9944C648.733 19.8001 648.684 20.5813 648.684 22.1438C648.684 23.4866 647.634 24.6097 646.389 24.6097C644.46 24.6097 643.484 24.512 642.532 24.4144C641.628 24.3167 640.774 24.2435 639.089 24.2191C639.089 24.2923 639.114 24.3655 639.114 24.4632C639.114 27.1732 639.065 28.5648 639.016 29.8832C638.967 31.2016 638.918 32.5688 638.918 35.2299C638.918 37.9399 638.845 39.3315 638.772 40.6743C638.699 41.9927 638.65 43.3355 638.65 46.0211C638.65 48.7066 638.674 50.0738 638.698 51.3922C638.723 52.7106 638.747 54.1022 638.747 56.8122C638.772 58.1062 637.795 59.2048 636.574 59.2048ZM629.568 24.4632C629.568 27.1244 629.568 28.4671 629.568 29.7855C629.568 31.1283 629.568 32.4711 629.568 35.1811C629.568 37.8667 629.616 39.2095 629.665 40.5278C629.714 41.8706 629.787 43.2378 629.787 45.9478C629.787 48.6578 629.738 50.025 629.714 51.3678C629.69 52.6862 629.641 54.0534 629.641 56.739C629.641 56.8854 629.885 57.1052 630.08 57.1052C631.716 57.1052 632.546 57.1296 633.352 57.154C634.133 57.1784 634.963 57.2028 636.574 57.2028C636.623 57.2028 636.794 56.9831 636.794 56.7145C636.794 54.029 636.77 52.6618 636.745 51.3434C636.721 50.025 636.697 48.6334 636.697 45.9234C636.697 43.2134 636.77 41.8218 636.843 40.479C636.916 39.1606 636.965 37.8178 636.965 35.1323C636.965 32.4223 637.014 31.0307 637.063 29.7123C637.112 28.4183 637.16 27.6126 637.16 25.0247C637.16 25.0003 637.136 24.4632 637.136 24.4388C637.038 23.7064 637.209 23.096 637.405 22.803C637.771 22.2659 638.113 22.095 638.674 22.1194C638.772 22.1194 638.845 22.1438 638.918 22.1438C640.847 22.1438 641.824 22.2415 642.776 22.3391C643.728 22.4368 644.607 22.5345 646.438 22.5345C646.56 22.5345 646.755 22.2903 646.755 22.0462C646.755 20.4348 646.78 19.6047 646.828 18.7991C646.853 17.9934 646.902 17.2121 646.902 15.6496C646.902 15.4543 646.609 15.1613 646.438 15.1613C644.582 15.1613 643.63 15.1857 642.702 15.2346C641.775 15.259 642.409 15.3078 640.53 15.3078C640.481 15.3078 639.382 15.259 638.796 15.3322C637.942 15.4299 637.771 15.259 637.331 14.9416C636.745 14.4777 636.721 14.0871 636.721 13.4279V13.3547C636.721 12.6222 636.77 12.2316 636.819 11.8898C636.867 11.5724 636.892 11.2795 636.892 10.6935C636.892 10.4738 636.77 10.3029 636.623 10.3029C635.012 10.3029 634.182 10.3029 633.376 10.3029C632.571 10.3029 631.74 10.3029 630.129 10.3029C629.958 10.3029 629.763 10.4982 629.763 10.6935C629.763 11.4015 629.738 11.7677 629.69 12.1095C629.665 12.4269 629.641 12.1828 629.641 12.7687V12.964C629.861 14.0139 629.69 14.5754 629.372 14.9172C628.884 15.4055 628.518 15.5031 628.005 15.4787C627.956 15.4787 627.883 15.4787 627.81 15.4787C625.124 15.4787 624.074 15.4299 622.658 15.3811C621.755 15.3566 620.754 15.3078 619.094 15.259C619.021 15.259 618.898 15.4543 618.898 15.674C618.898 17.3342 618.801 18.1643 618.728 18.97C618.654 19.7756 618.557 20.5081 618.557 22.0706C618.581 22.1438 618.801 22.2903 619.069 22.2903C621.242 22.2903 622.341 22.2903 623.44 22.2903C624.538 22.2903 625.612 22.2903 627.81 22.2903C627.907 22.2903 628.322 22.2659 628.371 22.2903C628.957 22.4856 628.957 22.6565 629.128 22.8274C629.445 23.1937 629.641 23.9261 629.568 24.4632Z" fill="black"/>
<path d="M677.591 12.134C678.079 12.134 678.153 12.5734 678.494 12.2072C678.836 11.841 678.372 11.7922 678.372 11.3039C678.372 9.52164 678.47 9.52165 678.47 7.7394C678.47 7.00697 679.154 6.34778 679.886 6.34778C683.084 6.34778 683.084 6.59192 686.307 6.59192C687.039 6.59192 687.821 7.00697 687.821 7.7394C687.821 9.52165 687.479 9.52164 687.479 11.3039C687.479 11.7922 687.235 11.9875 687.601 12.3293C687.943 12.6711 688.138 12.1096 688.626 12.1096C696.61 12.1096 696.61 12.2072 704.569 12.2072C705.301 12.2072 705.741 12.8908 705.741 13.6232C705.741 16.8215 705.79 16.8215 705.79 20.0442C705.79 20.7767 705.301 21.4847 704.569 21.4847C699.198 21.4847 699.198 21.387 693.826 21.387C688.455 21.387 688.455 21.2161 683.084 21.2161C677.713 21.2161 677.713 21.1917 672.342 21.1917C671.854 21.1917 671.78 21.094 671.414 21.4358C671.072 21.7776 671.316 21.8509 671.316 22.3636C671.316 26.9535 671.487 26.9535 671.487 31.5434C671.487 32.2758 670.755 32.8617 670.047 32.8617C666.873 32.8617 666.873 32.9838 663.699 32.9838C662.967 32.9838 662.332 32.2758 662.332 31.5434C662.332 27.0756 662.576 27.0756 662.576 22.5833C662.576 18.1155 662.576 18.1155 662.576 13.6232C662.576 12.8908 662.967 12.2805 663.699 12.2805C670.608 12.134 670.633 12.134 677.591 12.134Z" fill="#C4C4C4"/>
<path d="M663.65 33.936C662.381 33.936 661.282 32.7885 661.282 31.4946C661.282 29.224 661.355 28.0766 661.404 26.9535C661.478 25.806 661.526 24.7318 661.526 22.5345C661.526 20.2884 661.526 19.1897 661.526 18.0667C661.526 16.9436 661.526 15.8206 661.526 13.5989C661.526 12.2561 662.405 11.2795 663.626 11.2795L664.285 11.2551C670.511 11.133 670.804 11.1086 677.371 11.1086C677.371 10.3029 677.396 9.86346 677.42 9.424C677.445 8.98454 677.469 8.5695 677.469 7.69058C677.469 6.42104 678.592 5.32239 679.862 5.32239C681.497 5.32239 682.327 5.39563 683.133 5.44446C683.939 5.5177 684.696 5.56653 686.258 5.56653C687.479 5.56653 688.748 6.37221 688.748 7.69058C688.748 8.66715 688.651 9.20427 688.553 9.66814C688.48 10.0588 688.407 10.4006 688.407 11.0842C688.455 11.0842 688.504 11.0842 688.553 11.0842C692.557 11.0842 694.583 11.1086 696.537 11.133C698.49 11.1574 700.516 11.1818 704.496 11.1818C705.716 11.1818 706.644 12.2072 706.644 13.5744C706.644 15.1614 706.668 15.9915 706.668 16.7727C706.693 17.554 706.693 18.3841 706.693 19.9954C706.693 21.3382 705.692 22.4124 704.471 22.4124C701.786 22.4124 700.394 22.388 699.076 22.3636C697.757 22.3392 696.39 22.3148 693.704 22.3148C690.994 22.3148 689.627 22.2659 688.284 22.2171C686.966 22.1683 685.623 22.1195 682.938 22.1195C680.252 22.1195 678.885 22.1195 677.567 22.095C676.248 22.095 674.881 22.0706 672.195 22.0706C672.171 22.0706 672.171 22.0706 672.147 22.0706C672.147 22.1195 672.147 22.1927 672.147 22.2415C672.147 24.5121 672.195 25.684 672.22 26.7826C672.269 27.9301 672.293 29.102 672.293 31.3969C672.293 32.642 671.17 33.7163 669.852 33.7163C668.289 33.7163 667.532 33.7407 666.727 33.7895C666.067 33.9116 665.262 33.936 663.65 33.936ZM663.65 13.2815C663.602 13.2815 663.602 13.2815 663.602 13.2815C663.577 13.3059 663.528 13.4035 663.528 13.6233C663.528 15.8694 663.528 16.968 663.528 18.0911C663.528 19.2141 663.528 20.3372 663.528 22.5589C663.528 24.8294 663.455 25.9769 663.406 27.1C663.333 28.2475 663.284 29.3217 663.284 31.519C663.284 31.7387 663.504 31.9828 663.675 31.9828C665.237 31.9828 665.994 31.9584 666.8 31.9096C667.581 31.8852 668.411 31.8364 669.998 31.8364C670.242 31.8364 670.462 31.641 670.462 31.519C670.462 29.2484 670.413 28.0766 670.389 26.9779C670.34 25.8304 670.316 24.6585 670.316 22.3636C670.316 22.3148 670.316 22.2904 670.291 22.2171C670.193 21.8265 670.145 21.3138 670.706 20.7523C671.194 20.264 671.585 20.1907 672.122 20.2151C672.171 20.2151 672.244 20.2151 672.342 20.2151C675.028 20.2151 676.395 20.2151 677.713 20.2395C679.031 20.2395 680.399 20.264 683.084 20.264C685.794 20.264 687.161 20.3128 688.504 20.3616C689.823 20.4104 691.165 20.4593 693.851 20.4593C696.537 20.4593 697.928 20.4837 699.247 20.5081C700.565 20.5325 701.932 20.5569 704.618 20.5569C704.715 20.5569 704.862 20.3372 704.862 20.1175C704.862 18.5305 704.837 17.7005 704.837 16.9192C704.813 16.1379 704.813 15.3079 704.813 13.6965C704.813 13.4768 704.715 13.2815 704.642 13.2815C700.638 13.2815 698.612 13.2571 696.659 13.2326C694.705 13.2082 692.703 13.1838 688.797 13.1838C688.773 13.1838 688.773 13.2082 688.748 13.2082C687.625 13.2082 687.43 13.2082 687.137 12.9152C686.527 12.3049 686.478 11.8654 686.527 11.5725C686.551 11.4992 686.551 11.426 686.551 11.3527C686.551 10.3762 686.649 9.83904 686.746 9.37517C686.82 8.96013 686.893 8.5695 686.893 7.78824C686.844 7.73941 686.649 7.61734 686.38 7.61734C684.744 7.61734 683.914 7.5441 683.084 7.49527C682.279 7.42203 681.522 7.3732 679.959 7.3732C679.764 7.3732 679.544 7.59292 679.544 7.76382C679.544 8.69157 679.52 9.15544 679.495 9.5949C679.471 10.0344 679.447 10.425 679.447 11.2551C679.52 12.2805 679.544 12.6467 679.276 12.9397C678.934 13.2815 678.616 13.3547 677.615 13.1594C677.615 13.1594 677.615 13.1594 677.591 13.1594C670.926 13.1594 670.657 13.1594 664.407 13.3059L663.65 13.2815Z" fill="black"/>
<path d="M742.704 18.262C743.193 18.262 743.388 18.5305 743.754 18.1643C744.096 17.8225 743.803 17.6272 743.803 17.1145C743.803 12.6711 743.876 12.6711 743.876 8.25209C743.876 7.51966 744.291 7.12904 745.024 7.12904C748.271 7.12904 748.271 6.71399 751.518 6.71399C752.25 6.71399 752.861 7.51966 752.861 8.25209C752.861 12.6955 752.787 12.6955 752.787 17.1145C752.787 17.6028 752.421 17.8225 752.763 18.1887C753.105 18.5305 753.325 17.9446 753.837 17.9446C761.332 17.9446 761.332 18.3108 768.803 18.3108C769.536 18.3108 769.975 18.7014 769.975 19.4339C769.975 22.7054 769.951 22.7054 769.951 25.9769C769.951 26.7093 769.536 27.1 768.803 27.1C763.212 27.1 763.212 27.4662 757.621 27.4662C752.031 27.4662 752.031 27.4906 746.44 27.4906C740.849 27.4906 740.849 27.0511 735.258 27.0511C729.667 27.0511 729.667 27.0511 724.076 27.0511C723.344 27.0511 722.782 26.6849 722.782 25.9525C722.782 22.681 722.758 22.681 722.758 19.4094C722.758 18.677 723.319 18.0911 724.052 18.0911C728.715 18.0911 728.715 17.8469 733.378 17.8713C738.066 17.969 738.066 18.262 742.704 18.262Z" fill="black"/>
<path d="M746.44 28.516C743.608 28.516 742.167 28.3939 740.776 28.2963C739.36 28.1986 738.017 28.0765 735.258 28.0765H724.076C722.733 28.0765 721.806 27.222 721.806 26.0013C721.806 24.3656 721.806 23.5355 721.806 22.7298C721.806 21.8997 721.806 21.0941 721.806 19.4583C721.806 18.1887 722.831 17.1633 724.101 17.1633C726.298 17.1633 727.445 17.1145 728.544 17.0413C729.789 16.968 730.961 16.9192 733.427 16.9436C735.697 16.968 736.869 17.0413 737.992 17.1145C739.189 17.1878 740.336 17.261 742.729 17.261C742.753 17.261 742.802 17.261 742.826 17.261C742.826 17.2122 742.826 17.1633 742.826 17.1145C742.826 14.8928 742.851 13.7697 742.875 12.6711C742.9 11.5969 742.924 10.4738 742.924 8.2521C742.924 6.98256 743.779 6.12806 745.073 6.12806C746.635 6.12806 747.392 6.0304 748.198 5.93274C749.028 5.83508 749.882 5.71301 751.567 5.71301C752.934 5.71301 753.886 7.05581 753.886 8.22769C753.886 10.4494 753.862 11.5725 753.862 12.6711C753.837 13.7209 753.837 14.8196 753.837 16.9192C753.862 16.9192 753.862 16.9192 753.886 16.9192C757.646 16.9192 759.575 17.0169 761.406 17.0901C763.237 17.1878 765.117 17.261 768.852 17.261C770.146 17.261 771.001 18.1155 771.001 19.385C771.001 21.0208 771.001 21.8509 770.976 22.681C770.976 23.4867 770.952 24.3167 770.952 25.9525C770.952 27.222 770.097 28.0765 768.828 28.0765C766.069 28.0765 764.726 28.1742 763.31 28.2719C761.918 28.3695 760.478 28.4672 757.646 28.4672C754.863 28.4672 753.447 28.4672 752.055 28.4672C750.639 28.516 749.223 28.516 746.44 28.516ZM735.258 26.099C738.09 26.099 739.53 26.2211 740.922 26.3187C742.338 26.4164 743.681 26.5384 746.44 26.5384C749.223 26.5384 750.639 26.5384 752.031 26.5384C753.422 26.5384 754.814 26.5384 757.621 26.5384C760.38 26.5384 761.723 26.4408 763.139 26.3431C764.531 26.2455 765.971 26.1478 768.803 26.1478C768.877 26.1478 768.925 26.1478 768.95 26.1234C768.95 26.099 768.95 26.0502 768.95 26.0013C768.95 24.3656 768.95 23.5355 768.974 22.7054C768.974 21.8997 768.999 21.0696 768.999 19.4339C768.999 19.385 768.999 19.3362 768.999 19.3118C768.974 19.3118 768.925 19.2874 768.828 19.2874C765.068 19.2874 763.139 19.1897 761.308 19.1165C759.501 19.0188 757.621 18.9456 753.959 18.9456C753.935 18.9456 753.911 18.97 753.911 18.9944C753.007 19.5804 752.397 19.1897 752.104 18.8968C751.445 18.2376 751.713 17.5051 751.786 17.261C751.811 17.2122 751.835 17.1633 751.835 17.1389C751.835 14.9172 751.86 13.7942 751.86 12.6955C751.884 11.6213 751.884 10.4982 751.884 8.27652C751.884 8.00796 751.616 7.73941 751.542 7.73941C749.98 7.73941 749.223 7.83706 748.417 7.93472C747.587 8.03238 746.733 8.15445 745.048 8.15445C744.975 8.15445 744.926 8.15445 744.902 8.17886C744.902 8.20328 744.902 8.25211 744.902 8.30093C744.902 10.5226 744.877 11.6457 744.853 12.7443C744.828 13.8186 744.804 14.9416 744.804 17.1633C744.804 17.1878 744.828 17.2366 744.828 17.3342C744.902 17.6028 745.097 18.262 744.462 18.9212C743.852 19.5315 743.193 19.385 742.924 19.3362C742.826 19.3118 742.778 19.3118 742.729 19.3118C740.263 19.3118 739.115 19.2386 737.87 19.1409C736.772 19.0677 735.624 18.9944 733.402 18.97C730.985 18.9456 729.862 18.9944 728.642 19.0677C727.519 19.1165 726.347 19.1897 724.101 19.1897C723.93 19.1897 723.783 19.3118 723.783 19.5071C723.783 21.1429 723.783 21.973 723.783 22.7786C723.783 23.6087 723.783 24.4144 723.783 26.0502C723.783 26.0746 723.783 26.099 723.783 26.099C723.808 26.1234 723.905 26.1478 724.076 26.1478L735.258 26.099Z" fill="black"/>
<path d="M696.218 64.283C696.462 64.1365 696.584 64.3074 696.731 64.0633C696.877 63.8192 696.999 63.7947 696.999 63.5018C696.999 57.447 696.926 57.447 696.926 51.3678C696.926 45.3131 696.633 45.3131 696.633 39.2339C696.633 33.1792 696.853 33.1792 696.853 27.1C696.853 26.7338 697.073 26.4652 697.439 26.4652C701.345 26.4652 701.345 26.3187 705.251 26.3187C705.618 26.3187 706.13 26.7338 706.13 27.1C706.13 32.3247 705.959 32.3247 705.959 37.5737C705.959 42.7984 706.106 42.7984 706.106 48.0475C706.106 53.2722 706.106 53.2722 706.106 58.5212C706.106 63.7703 705.935 63.7459 705.935 68.995C705.935 69.2391 705.74 69.41 705.544 69.5321C698.269 73.7314 698.196 73.6093 690.92 77.8086C683.938 81.8369 684.109 82.1055 677.15 86.1339C676.833 86.3048 676.32 86.1094 676.149 85.7921C674.196 82.4229 672.854 82.8867 672.194 79.0293C671.95 77.7109 673.586 78.8584 674.929 78.8584C676.272 78.8584 673.61 79.1514 672.268 79.1758C672.072 78.8584 672.268 78.4189 672.585 78.248C678.518 74.8056 678.542 74.83 684.475 71.3632C690.359 67.8719 690.261 67.7254 696.218 64.283Z" fill="black"/>
<path d="M676.882 87.1836C676.223 87.1836 675.588 86.7929 675.271 86.2802C674.563 85.0595 673.952 84.3759 673.415 83.79C672.463 82.7402 671.657 81.8368 671.194 79.2001C671.047 78.4188 671.34 77.9794 671.584 77.7352C671.633 77.6864 671.657 77.662 671.706 77.6376C671.804 77.5399 671.926 77.4422 672.048 77.369C673.586 76.4657 674.734 75.8065 675.686 75.2694C678.396 73.7068 679.543 73.0477 683.913 70.5086C686.746 68.8728 688.186 67.9695 689.578 67.115C691.116 66.1628 692.581 65.2595 695.706 63.4528C695.803 63.404 695.901 63.3552 695.999 63.3308C695.999 60.4499 695.974 58.9362 695.95 57.4957C695.925 56.0064 695.901 54.4439 695.901 51.4165C695.901 48.4136 695.828 46.8755 695.754 45.4106C695.681 43.8969 695.608 42.3588 695.608 39.307C695.608 36.2552 695.657 34.6927 695.73 33.2035C695.779 31.7142 695.852 30.2005 695.852 27.1731C695.852 26.2454 696.536 25.5374 697.439 25.5374C699.368 25.5374 700.344 25.4885 701.296 25.4641C702.273 25.4397 703.274 25.3909 705.227 25.3909C706.082 25.3909 707.107 26.1721 707.107 27.1731C707.107 29.8099 707.058 31.1527 707.034 32.4466C706.985 33.7162 706.961 35.0589 706.961 37.6469C706.961 40.2592 706.985 41.5776 707.034 42.8471C707.058 44.1411 707.107 45.4839 707.107 48.0962C707.107 50.7085 707.107 52.0269 707.107 53.3209C707.107 54.6393 707.107 55.9332 707.107 58.5455C707.107 61.1823 707.058 62.5251 707.034 63.819C706.985 65.0886 706.961 66.4314 706.961 69.0193C706.961 69.5808 706.643 70.0935 706.082 70.4109C702.444 72.5105 700.564 73.5604 698.757 74.5614C696.951 75.5623 695.095 76.5877 691.457 78.6874C687.991 80.6893 686.257 81.788 684.597 82.8378C682.912 83.912 681.179 85.0107 677.663 87.0127C677.395 87.1103 677.126 87.1836 676.882 87.1836ZM673.415 80.079C673.757 81.2265 674.221 81.7148 674.88 82.4472C675.442 83.0575 676.125 83.8144 676.882 85.1083C680.178 83.204 681.863 82.1298 683.498 81.1044C685.183 80.0302 686.916 78.9315 690.432 76.9295C694.07 74.8299 695.95 73.7801 697.756 72.7791C699.539 71.7781 701.394 70.7527 704.934 68.7019C704.934 66.2361 704.983 64.9421 705.007 63.697C705.056 62.4274 705.081 61.0846 705.081 58.4967C705.081 55.8844 705.081 54.566 705.081 53.272C705.081 51.9537 705.081 50.6597 705.081 48.0474C705.081 45.435 705.056 44.1167 705.007 42.8471C704.983 41.5532 704.934 40.2104 704.934 37.598C704.934 34.9613 704.983 33.6185 705.007 32.3245C705.056 31.0794 705.081 29.7854 705.081 27.3196C703.225 27.3196 702.249 27.3684 701.321 27.3928C700.418 27.4173 699.49 27.4661 697.781 27.4661C697.781 30.2982 697.732 31.7874 697.659 33.2279C697.61 34.7171 697.537 36.2308 697.537 39.2582C697.537 42.2612 697.61 43.7993 697.683 45.2641C697.756 46.7778 697.83 48.3159 697.83 51.3677C697.83 54.3951 697.854 55.9332 697.878 57.4225C697.903 58.9118 697.927 60.4743 697.927 63.5016C697.927 64.0388 697.708 64.3317 697.561 64.4782C697.537 64.5026 697.512 64.5271 697.512 64.5515C697.293 64.9421 696.975 65.1374 696.536 65.1862C693.508 66.9441 692.092 67.823 690.579 68.7507C689.163 69.6296 687.722 70.533 684.866 72.1932C680.471 74.7567 679.348 75.3914 676.638 76.9784C676.174 77.2469 675.686 77.5399 675.1 77.8573C675.808 77.9305 676.174 78.2479 676.174 78.8583C676.174 79.7616 675.295 79.8837 675.002 79.9325C674.782 79.9569 674.514 80.0057 674.172 80.0302C674.026 80.0302 673.733 80.0546 673.415 80.079Z" fill="black"/>
<path d="M743.435 64.0144C743.679 63.8679 743.557 63.697 743.703 63.4529C743.85 63.2087 743.996 63.2331 743.996 62.9402C743.996 55.5182 743.703 55.5182 743.703 48.0962C743.703 40.6743 743.606 40.6743 743.606 33.2523C743.606 32.8861 744.094 32.764 744.46 32.764C748.366 32.764 748.366 32.7152 752.273 32.7152C752.639 32.7152 752.737 32.8861 752.737 33.2523C752.737 39.1118 752.956 39.1118 752.956 44.9712C752.956 50.8307 752.688 50.8307 752.688 56.6901C752.688 62.5495 753.03 62.5495 753.03 68.409C753.03 68.6531 752.908 68.9949 752.688 69.117C747.951 71.8514 747.805 71.6072 743.044 74.3417C738.283 77.0761 738.43 77.2958 733.669 80.0302C728.908 82.7646 728.737 82.4472 723.976 85.1816C723.659 85.3525 723.171 85.5722 722.976 85.2793C721.022 81.9101 721.291 81.7392 719.338 78.37C719.142 78.0526 719.313 77.8817 719.631 77.7108C725.563 74.2684 725.466 74.0975 731.447 70.7283C737.453 67.3836 737.478 67.4324 743.435 64.0144Z" fill="white"/>
<path d="M723.538 86.6221C722.805 86.6221 722.464 86.1094 722.39 85.9629C721.389 84.2295 720.95 83.3261 720.535 82.4228C720.12 81.5195 719.705 80.6894 718.753 79.0292C718.508 78.5898 718.508 78.1991 718.582 77.955C718.728 77.3935 719.216 77.1249 719.412 77.0028C722.073 75.4647 723.562 74.5614 724.856 73.7557C726.516 72.7303 727.664 71.7293 731.253 70.0203C733.523 68.9461 734.793 68.0428 736.014 67.3836C738.04 66.2605 739.383 65.5281 742.972 63.4529C742.947 63.4773 742.947 63.4773 743.216 63.282C743.313 63.2087 743.216 62.9158 743.289 62.5007C743.289 58.9606 743.216 57.4714 743.143 55.7135C743.069 53.8825 742.996 51.9781 742.996 48.2427C742.996 44.5318 742.801 42.6519 742.776 40.8452C742.752 39.0141 742.898 37.1342 742.898 33.4232C742.898 32.5443 743.655 31.934 744.754 31.934C746.707 31.934 747.684 31.9095 748.636 31.9095C749.588 31.9095 750.589 31.8851 752.542 31.8851C753.25 31.8851 754.007 32.3002 754.007 33.4232C754.007 36.3285 754.056 37.8178 754.105 39.2583C754.153 40.6987 754.202 42.2124 754.202 45.1665C754.202 48.1207 754.129 49.6099 754.08 51.0748C754.007 52.5152 753.958 53.9801 753.958 56.8854C753.958 59.7907 754.031 61.2556 754.129 62.696C754.202 64.1609 754.3 65.6502 754.3 68.6043C754.3 69.1414 754.031 69.8494 753.47 70.1668C751.077 71.5584 749.808 72.1932 748.611 72.8036C747.415 73.4139 746.194 74.0487 743.826 75.3915C741.482 76.7587 740.31 77.4911 739.187 78.2236C738.04 78.956 736.844 79.7128 734.451 81.1044C732.058 82.4961 730.789 83.1064 729.544 83.7168C728.299 84.3271 727.102 84.9131 724.759 86.2803C724.246 86.5244 723.855 86.6221 723.538 86.6221ZM720.73 78.5409C721.536 79.957 721.927 80.7871 722.317 81.5927C722.708 82.3984 723.05 83.1552 723.831 84.498C726.199 83.1308 727.444 82.5205 728.665 81.9345C729.861 81.3486 731.106 80.7382 733.45 79.3954C735.794 78.0282 736.966 77.2958 738.089 76.5634C739.236 75.8309 740.433 75.0741 742.825 73.6825C745.218 72.2909 746.487 71.6561 747.684 71.0457C748.855 70.4598 750.052 69.8494 752.298 68.5555C752.298 65.6746 752.225 64.2097 752.127 62.7937C752.054 61.3288 751.956 59.8395 751.956 56.8854C751.956 53.9313 752.029 52.442 752.078 50.9771C752.151 49.5367 752.2 48.0718 752.2 45.1665C752.2 42.2612 752.151 40.772 752.103 39.3315C752.054 37.9643 752.005 36.5483 752.005 33.8871C750.394 33.8871 749.515 33.9115 748.636 33.9115C747.684 33.9115 746.731 33.9359 744.852 33.9359C744.852 37.3295 744.705 39.1118 744.729 40.8452C744.754 42.6763 744.949 44.5562 744.949 48.2672C744.949 51.9537 745.022 53.8336 745.096 55.6403C745.169 57.4714 745.242 59.3757 745.242 63.1111C745.242 63.6482 745.34 63.6726 745.169 64.2097C744.998 64.7468 744.705 64.7468 744.192 65.0398C740.408 67.2371 739.041 67.9939 736.941 69.1414C735.745 69.8006 734.5 70.826 732.205 71.7782C728.714 73.1942 727.517 74.4882 725.882 75.4891C724.636 76.246 723.22 77.1249 720.73 78.5409Z" fill="black"/>
<path d="M3.06818 91.1818V61.1818H6.30682V64.6477H6.70455C6.95076 64.2689 7.29167 63.786 7.72727 63.1989C8.17235 62.6023 8.80682 62.072 9.63068 61.608C10.464 61.1345 11.5909 60.8977 13.0114 60.8977C14.8485 60.8977 16.4678 61.357 17.8693 62.2756C19.2708 63.1941 20.3646 64.4962 21.1506 66.1818C21.9366 67.8674 22.3295 69.8561 22.3295 72.1477C22.3295 74.4583 21.9366 76.4612 21.1506 78.1562C20.3646 79.8419 19.2756 81.1487 17.8835 82.0767C16.4915 82.9953 14.8864 83.4545 13.0682 83.4545C11.6667 83.4545 10.5445 83.2225 9.7017 82.7585C8.8589 82.285 8.21023 81.75 7.75568 81.1534C7.30114 80.5473 6.95076 80.0455 6.70455 79.6477H6.42045V91.1818H3.06818ZM6.36364 72.0909C6.36364 73.7386 6.60511 75.1922 7.08807 76.4517C7.57102 77.7017 8.27652 78.6818 9.20455 79.392C10.1326 80.0928 11.2689 80.4432 12.6136 80.4432C14.0152 80.4432 15.1847 80.0739 16.1222 79.3352C17.0691 78.5871 17.7794 77.5833 18.2528 76.3239C18.7358 75.0549 18.9773 73.6439 18.9773 72.0909C18.9773 70.5568 18.7405 69.1742 18.267 67.9432C17.803 66.7027 17.0975 65.7225 16.1506 65.0028C15.2131 64.2737 14.0341 63.9091 12.6136 63.9091C11.25 63.9091 10.1042 64.2547 9.17614 64.946C8.24811 65.6278 7.54735 66.5843 7.07386 67.8153C6.60038 69.0369 6.36364 70.4621 6.36364 72.0909ZM27.4432 83V61.1818H30.6818V64.4773H30.9091C31.3068 63.3977 32.0265 62.5218 33.0682 61.8494C34.1098 61.1771 35.2841 60.8409 36.5909 60.8409C36.8371 60.8409 37.1449 60.8456 37.5142 60.8551C37.8835 60.8646 38.1629 60.8788 38.3523 60.8977V64.3068C38.2386 64.2784 37.9782 64.2358 37.571 64.179C37.1733 64.1127 36.7519 64.0795 36.3068 64.0795C35.2462 64.0795 34.2992 64.3021 33.4659 64.7472C32.642 65.1828 31.9886 65.7888 31.5057 66.5653C31.0322 67.3324 30.7955 68.2083 30.7955 69.1932V83H27.4432ZM50.5256 83.4545C48.5559 83.4545 46.8277 82.9858 45.3409 82.0483C43.8636 81.1108 42.7083 79.7992 41.875 78.1136C41.0511 76.428 40.6392 74.4583 40.6392 72.2045C40.6392 69.9318 41.0511 67.9479 41.875 66.2528C42.7083 64.5578 43.8636 63.2415 45.3409 62.304C46.8277 61.3665 48.5559 60.8977 50.5256 60.8977C52.4953 60.8977 54.2188 61.3665 55.696 62.304C57.1828 63.2415 58.3381 64.5578 59.1619 66.2528C59.9953 67.9479 60.4119 69.9318 60.4119 72.2045C60.4119 74.4583 59.9953 76.428 59.1619 78.1136C58.3381 79.7992 57.1828 81.1108 55.696 82.0483C54.2188 82.9858 52.4953 83.4545 50.5256 83.4545ZM50.5256 80.4432C52.0218 80.4432 53.2528 80.0597 54.2188 79.2926C55.1847 78.5256 55.8996 77.517 56.3636 76.267C56.8277 75.017 57.0597 73.6629 57.0597 72.2045C57.0597 70.7462 56.8277 69.3873 56.3636 68.1278C55.8996 66.8684 55.1847 65.8504 54.2188 65.0739C53.2528 64.2973 52.0218 63.9091 50.5256 63.9091C49.0294 63.9091 47.7983 64.2973 46.8324 65.0739C45.8665 65.8504 45.1515 66.8684 44.6875 68.1278C44.2235 69.3873 43.9915 70.7462 43.9915 72.2045C43.9915 73.6629 44.2235 75.017 44.6875 76.267C45.1515 77.517 45.8665 78.5256 46.8324 79.2926C47.7983 80.0597 49.0294 80.4432 50.5256 80.4432ZM73.7678 83.4545C71.9496 83.4545 70.3445 82.9953 68.9524 82.0767C67.5604 81.1487 66.4714 79.8419 65.6854 78.1562C64.8994 76.4612 64.5064 74.4583 64.5064 72.1477C64.5064 69.8561 64.8994 67.8674 65.6854 66.1818C66.4714 64.4962 67.5651 63.1941 68.9666 62.2756C70.3681 61.357 71.9875 60.8977 73.8246 60.8977C75.245 60.8977 76.3672 61.1345 77.1911 61.608C78.0244 62.072 78.6589 62.6023 79.0945 63.1989C79.5395 63.786 79.8852 64.2689 80.1314 64.6477H80.4155V53.9091H83.7678V83H80.5291V79.6477H80.1314C79.8852 80.0455 79.5348 80.5473 79.0803 81.1534C78.6257 81.75 77.977 82.285 77.1342 82.7585C76.2914 83.2225 75.1693 83.4545 73.7678 83.4545ZM74.2223 80.4432C75.567 80.4432 76.7034 80.0928 77.6314 79.392C78.5594 78.6818 79.2649 77.7017 79.7479 76.4517C80.2308 75.1922 80.4723 73.7386 80.4723 72.0909C80.4723 70.4621 80.2356 69.0369 79.7621 67.8153C79.2886 66.5843 78.5878 65.6278 77.6598 64.946C76.7318 64.2547 75.5859 63.9091 74.2223 63.9091C72.8018 63.9091 71.6181 64.2737 70.6712 65.0028C69.7337 65.7225 69.0282 66.7027 68.5547 67.9432C68.0907 69.1742 67.8587 70.5568 67.8587 72.0909C67.8587 73.6439 68.0954 75.0549 68.5689 76.3239C69.0518 77.5833 69.7621 78.5871 70.6996 79.3352C71.6465 80.0739 72.8208 80.4432 74.2223 80.4432ZM104.123 74.0795V61.1818H107.475V83H104.123V79.3068H103.896C103.384 80.4148 102.589 81.357 101.509 82.1335C100.43 82.9006 99.0661 83.2841 97.4183 83.2841C96.0547 83.2841 94.8426 82.9858 93.782 82.3892C92.7214 81.7831 91.888 80.8741 91.282 79.6619C90.6759 78.4403 90.3729 76.9015 90.3729 75.0455V61.1818H93.7251V74.8182C93.7251 76.4091 94.1702 77.678 95.0604 78.625C95.96 79.572 97.1058 80.0455 98.4979 80.0455C99.3312 80.0455 100.179 79.8324 101.04 79.4062C101.912 78.9801 102.641 78.3267 103.228 77.446C103.825 76.5653 104.123 75.4432 104.123 74.0795ZM122.479 83.4545C120.433 83.4545 118.672 82.9716 117.195 82.0057C115.717 81.0398 114.581 79.7093 113.786 78.0142C112.99 76.3191 112.592 74.3826 112.592 72.2045C112.592 69.9886 113 68.0331 113.814 66.3381C114.638 64.6335 115.784 63.303 117.251 62.3466C118.729 61.3807 120.452 60.8977 122.422 60.8977C123.956 60.8977 125.339 61.1818 126.57 61.75C127.801 62.3182 128.809 63.1136 129.595 64.1364C130.381 65.1591 130.869 66.3523 131.058 67.7159H127.706C127.45 66.7216 126.882 65.8409 126.001 65.0739C125.13 64.2973 123.956 63.9091 122.479 63.9091C121.172 63.9091 120.026 64.25 119.041 64.9318C118.066 65.6042 117.304 66.5559 116.754 67.7869C116.214 69.0085 115.945 70.4432 115.945 72.0909C115.945 73.7765 116.21 75.2443 116.74 76.4943C117.28 77.7443 118.037 78.715 119.013 79.4062C119.998 80.0975 121.153 80.4432 122.479 80.4432C123.35 80.4432 124.141 80.2917 124.851 79.9886C125.561 79.6856 126.162 79.25 126.655 78.6818C127.147 78.1136 127.498 77.4318 127.706 76.6364H131.058C130.869 77.9242 130.4 79.0843 129.652 80.1165C128.913 81.1392 127.933 81.9536 126.712 82.5597C125.5 83.1562 124.089 83.4545 122.479 83.4545ZM145.107 83.4545C143.004 83.4545 141.191 82.9905 139.666 82.0625C138.151 81.125 136.982 79.8182 136.158 78.142C135.343 76.4564 134.936 74.4962 134.936 72.2614C134.936 70.0265 135.343 68.0568 136.158 66.3523C136.982 64.6383 138.127 63.303 139.595 62.3466C141.072 61.3807 142.796 60.8977 144.766 60.8977C145.902 60.8977 147.024 61.0871 148.132 61.4659C149.24 61.8447 150.249 62.4602 151.158 63.3125C152.067 64.1553 152.791 65.2727 153.331 66.6648C153.871 68.0568 154.141 69.7708 154.141 71.8068V73.2273H137.322V70.3295H150.732C150.732 69.0985 150.485 68 149.993 67.0341C149.51 66.0682 148.819 65.3059 147.919 64.7472C147.029 64.1884 145.978 63.9091 144.766 63.9091C143.43 63.9091 142.275 64.2405 141.3 64.9034C140.334 65.5568 139.59 66.4091 139.07 67.4602C138.549 68.5114 138.288 69.6383 138.288 70.8409V72.7727C138.288 74.4205 138.572 75.8172 139.141 76.9631C139.718 78.0994 140.518 78.9659 141.541 79.5625C142.564 80.1496 143.752 80.4432 145.107 80.4432C145.987 80.4432 146.783 80.3201 147.493 80.0739C148.213 79.8182 148.833 79.4394 149.354 78.9375C149.875 78.4261 150.277 77.7917 150.561 77.0341L153.8 77.9432C153.459 79.0417 152.886 80.0076 152.081 80.8409C151.276 81.6648 150.282 82.3087 149.098 82.7727C147.914 83.2273 146.584 83.4545 145.107 83.4545ZM167.479 83.4545C165.661 83.4545 164.055 82.9953 162.663 82.0767C161.271 81.1487 160.182 79.8419 159.396 78.1562C158.61 76.4612 158.217 74.4583 158.217 72.1477C158.217 69.8561 158.61 67.8674 159.396 66.1818C160.182 64.4962 161.276 63.1941 162.678 62.2756C164.079 61.357 165.698 60.8977 167.536 60.8977C168.956 60.8977 170.078 61.1345 170.902 61.608C171.735 62.072 172.37 62.6023 172.805 63.1989C173.25 63.786 173.596 64.2689 173.842 64.6477H174.126V53.9091H177.479V83H174.24V79.6477H173.842C173.596 80.0455 173.246 80.5473 172.791 81.1534C172.337 81.75 171.688 82.285 170.845 82.7585C170.002 83.2225 168.88 83.4545 167.479 83.4545ZM167.933 80.4432C169.278 80.4432 170.414 80.0928 171.342 79.392C172.27 78.6818 172.976 77.7017 173.459 76.4517C173.942 75.1922 174.183 73.7386 174.183 72.0909C174.183 70.4621 173.946 69.0369 173.473 67.8153C173 66.5843 172.299 65.6278 171.371 64.946C170.443 64.2547 169.297 63.9091 167.933 63.9091C166.513 63.9091 165.329 64.2737 164.382 65.0028C163.445 65.7225 162.739 66.7027 162.266 67.9432C161.802 69.1742 161.57 70.5568 161.57 72.0909C161.57 73.6439 161.806 75.0549 162.28 76.3239C162.763 77.5833 163.473 78.5871 164.411 79.3352C165.357 80.0739 166.532 80.4432 167.933 80.4432ZM195.788 83V53.9091H199.141V64.6477H199.425C199.671 64.2689 200.012 63.786 200.447 63.1989C200.893 62.6023 201.527 62.072 202.351 61.608C203.184 61.1345 204.311 60.8977 205.732 60.8977C207.569 60.8977 209.188 61.357 210.589 62.2756C211.991 63.1941 213.085 64.4962 213.871 66.1818C214.657 67.8674 215.05 69.8561 215.05 72.1477C215.05 74.4583 214.657 76.4612 213.871 78.1562C213.085 79.8419 211.996 81.1487 210.604 82.0767C209.212 82.9953 207.607 83.4545 205.788 83.4545C204.387 83.4545 203.265 83.2225 202.422 82.7585C201.579 82.285 200.93 81.75 200.476 81.1534C200.021 80.5473 199.671 80.0455 199.425 79.6477H199.027V83H195.788ZM199.084 72.0909C199.084 73.7386 199.325 75.1922 199.808 76.4517C200.291 77.7017 200.997 78.6818 201.925 79.392C202.853 80.0928 203.989 80.4432 205.334 80.4432C206.735 80.4432 207.905 80.0739 208.842 79.3352C209.789 78.5871 210.5 77.5833 210.973 76.3239C211.456 75.0549 211.697 73.6439 211.697 72.0909C211.697 70.5568 211.461 69.1742 210.987 67.9432C210.523 66.7027 209.818 65.7225 208.871 65.0028C207.933 64.2737 206.754 63.9091 205.334 63.9091C203.97 63.9091 202.824 64.2547 201.896 64.946C200.968 65.6278 200.268 66.5843 199.794 67.8153C199.321 69.0369 199.084 70.4621 199.084 72.0909ZM221.555 91.1818C220.987 91.1818 220.481 91.1345 220.036 91.0398C219.59 90.9545 219.283 90.8693 219.112 90.7841L219.964 87.8295C220.779 88.0379 221.499 88.1136 222.124 88.0568C222.749 88 223.303 87.7206 223.786 87.2188C224.278 86.7263 224.728 85.9261 225.135 84.8182L225.76 83.1136L217.692 61.1818H221.328L227.351 78.5682H227.578L233.601 61.1818H237.237L227.976 86.1818C227.559 87.3087 227.043 88.2415 226.428 88.9801C225.812 89.7282 225.097 90.2822 224.283 90.642C223.478 91.0019 222.569 91.1818 221.555 91.1818Z" fill="#696969"/>
</svg>
